<svg width="22" height="22" viewBox="0 0 22 22" fill="none" xmlns="http://www.w3.org/2000/svg">
<circle cx="11" cy="11" r="11" fill="white"/>
<path d="M6.69351 14.6935L4.53966 16.8474C4.47796 16.8978 4.41346 16.9231 4.34615 16.9231C4.27885 16.9231 4.21434 16.8978 4.15264 16.8474C4.10216 16.7913 4.07692 16.7268 4.07692 16.6538C4.07692 16.5809 4.10216 16.5164 4.15264 16.4603L6.30649 14.3065C6.36258 14.256 6.42708 14.2308 6.5 14.2308C6.57292 14.2308 6.63742 14.256 6.69351 14.3065C6.74399 14.3626 6.76923 14.4271 6.76923 14.5C6.76923 14.5729 6.74399 14.6374 6.69351 14.6935ZM8.11538 15.0385V17.7308C8.11538 17.8093 8.09014 17.8738 8.03966 17.9243C7.98918 17.9748 7.92468 18 7.84615 18C7.76763 18 7.70313 17.9748 7.65264 17.9243C7.60216 17.8738 7.57692 17.8093 7.57692 17.7308V15.0385C7.57692 14.9599 7.60216 14.8954 7.65264 14.845C7.70313 14.7945 7.76763 14.7692 7.84615 14.7692C7.92468 14.7692 7.98918 14.7945 8.03966 14.845C8.09014 14.8954 8.11538 14.9599 8.11538 15.0385ZM6.23077 13.1538C6.23077 13.2324 6.20553 13.2969 6.15505 13.3474C6.10457 13.3978 6.04006 13.4231 5.96154 13.4231H3.26923C3.19071 13.4231 3.1262 13.3978 3.07572 13.3474C3.02524 13.2969 3 13.2324 3 13.1538C3 13.0753 3.02524 13.0108 3.07572 12.9603C3.1262 12.9099 3.19071 12.8846 3.26923 12.8846H5.96154C6.04006 12.8846 6.10457 12.9099 6.15505 12.9603C6.20553 13.0108 6.23077 13.0753 6.23077 13.1538ZM16.8654 14.2308C16.8654 14.9038 16.627 15.4732 16.1502 15.9387L14.9135 17.1671C14.4479 17.6326 13.8786 17.8654 13.2055 17.8654C12.5268 17.8654 11.9547 17.627 11.4892 17.1502L8.67909 14.3317C8.5613 14.2139 8.44351 14.0569 8.32572 13.8606L10.3365 13.7091L12.6334 16.0144C12.7849 16.1659 12.9756 16.243 13.2055 16.2458C13.4355 16.2486 13.6262 16.1743 13.7776 16.0228L15.0144 14.7945C15.1715 14.6374 15.25 14.4495 15.25 14.2308C15.25 14.0064 15.1715 13.8157 15.0144 13.6587L12.7091 11.345L12.8606 9.33413C13.0569 9.45192 13.2139 9.56971 13.3317 9.6875L16.1587 12.5144C16.6298 12.9968 16.8654 13.5689 16.8654 14.2308ZM11.6743 8.13942L9.66346 8.29087L7.36659 5.98558C7.20954 5.82853 7.01883 5.75 6.79447 5.75C6.57572 5.75 6.38502 5.82572 6.22236 5.97716L4.98558 7.20553C4.82853 7.36258 4.75 7.55048 4.75 7.76923C4.75 7.99359 4.82853 8.1843 4.98558 8.34135L7.29087 10.6466L7.13942 12.6659C6.94311 12.5481 6.78606 12.4303 6.66827 12.3125L3.84135 9.48558C3.37019 9.00321 3.13462 8.43109 3.13462 7.76923C3.13462 7.09615 3.373 6.52684 3.84976 6.0613L5.08654 4.83293C5.55208 4.36739 6.12139 4.13462 6.79447 4.13462C7.47316 4.13462 8.04527 4.373 8.51082 4.84976L11.3209 7.66827C11.4387 7.78606 11.5565 7.94311 11.6743 8.13942ZM17 8.84615C17 8.92468 16.9748 8.98918 16.9243 9.03966C16.8738 9.09014 16.8093 9.11538 16.7308 9.11538H14.0385C13.9599 9.11538 13.8954 9.09014 13.845 9.03966C13.7945 8.98918 13.7692 8.92468 13.7692 8.84615C13.7692 8.76763 13.7945 8.70313 13.845 8.65264C13.8954 8.60216 13.9599 8.57692 14.0385 8.57692H16.7308C16.8093 8.57692 16.8738 8.60216 16.9243 8.65264C16.9748 8.70313 17 8.76763 17 8.84615ZM12.4231 4.26923V6.96154C12.4231 7.04006 12.3978 7.10457 12.3474 7.15505C12.2969 7.20553 12.2324 7.23077 12.1538 7.23077C12.0753 7.23077 12.0108 7.20553 11.9603 7.15505C11.9099 7.10457 11.8846 7.04006 11.8846 6.96154V4.26923C11.8846 4.19071 11.9099 4.1262 11.9603 4.07572C12.0108 4.02524 12.0753 4 12.1538 4C12.2324 4 12.2969 4.02524 12.3474 4.07572C12.3978 4.1262 12.4231 4.19071 12.4231 4.26923ZM15.8474 5.53966L13.6935 7.69351C13.6318 7.74399 13.5673 7.76923 13.5 7.76923C13.4327 7.76923 13.3682 7.74399 13.3065 7.69351C13.256 7.63742 13.2308 7.57292 13.2308 7.5C13.2308 7.42708 13.256 7.36258 13.3065 7.30649L15.4603 5.15264C15.5164 5.10216 15.5809 5.07692 15.6538 5.07692C15.7268 5.07692 15.7913 5.10216 15.8474 5.15264C15.8978 5.20873 15.9231 5.27324 15.9231 5.34615C15.9231 5.41907 15.8978 5.48357 15.8474 5.53966Z" fill="#CC0202"/>
</svg>
