<svg width="25" height="25" viewBox="0 0 25 25" fill="none" xmlns="http://www.w3.org/2000/svg">
<path d="M20.2793 4.95178H17.2793V3.45178C17.2793 3.31917 17.2266 3.192 17.1329 3.09823C17.0391 3.00446 16.9119 2.95178 16.7793 2.95178C16.6467 2.95178 16.5195 3.00446 16.4257 3.09823C16.332 3.192 16.2793 3.31917 16.2793 3.45178V4.95178H9.2793V3.45178C9.2793 3.31917 9.22662 3.192 9.13285 3.09823C9.03908 3.00446 8.91191 2.95178 8.7793 2.95178C8.64669 2.95178 8.51951 3.00446 8.42574 3.09823C8.33198 3.192 8.2793 3.31917 8.2793 3.45178V4.95178H5.2793C4.6165 4.95258 3.98108 5.21622 3.51241 5.68489C3.04374 6.15356 2.78009 6.78898 2.7793 7.45178V20.4518C2.78009 21.1146 3.04374 21.75 3.51241 22.2187C3.98108 22.6873 4.6165 22.951 5.2793 22.9518H20.2793C20.9422 22.9513 21.5778 22.6877 22.0465 22.219C22.5152 21.7502 22.7788 21.1147 22.7793 20.4518V7.45178C22.7788 6.7889 22.5152 6.15333 22.0465 5.6846C21.5778 5.21587 20.9422 4.95231 20.2793 4.95178ZM21.7793 20.4518C21.7793 20.8496 21.6213 21.2311 21.34 21.5124C21.0587 21.7937 20.6771 21.9518 20.2793 21.9518H5.2793C4.88147 21.9518 4.49994 21.7937 4.21864 21.5124C3.93733 21.2311 3.7793 20.8496 3.7793 20.4518V11.9518H21.7793V20.4518ZM21.7793 10.9518H3.7793V7.45178C3.7793 6.62378 4.4493 5.95178 5.2793 5.95178H8.2793V7.45178C8.2793 7.58439 8.33198 7.71157 8.42574 7.80534C8.51951 7.8991 8.64669 7.95178 8.7793 7.95178C8.91191 7.95178 9.03908 7.8991 9.13285 7.80534C9.22662 7.71157 9.2793 7.58439 9.2793 7.45178V5.95178H16.2793V7.45178C16.2793 7.58439 16.332 7.71157 16.4257 7.80534C16.5195 7.8991 16.6467 7.95178 16.7793 7.95178C16.9119 7.95178 17.0391 7.8991 17.1329 7.80534C17.2266 7.71157 17.2793 7.58439 17.2793 7.45178V5.95178H20.2793C20.6771 5.95178 21.0587 6.10982 21.34 6.39112C21.6213 6.67243 21.7793 7.05396 21.7793 7.45178V10.9518Z" fill="black"/>
</svg>
