<svg width="22" height="22" viewBox="0 0 22 22" fill="none" xmlns="http://www.w3.org/2000/svg">
<circle cx="11" cy="11" r="11" fill="white"/>
<path d="M8.35301 7.619L10.537 3.292C10.579 3.20495 10.6445 3.13143 10.7262 3.07981C10.8079 3.02819 10.9024 3.00053 10.999 3C11.182 3 11.365 3.097 11.464 3.292L13.648 7.619L18.546 8.315C18.6681 8.33419 18.7798 8.39491 18.8624 8.48691C18.9449 8.57891 18.9931 8.69655 18.999 8.82C19.006 8.90219 18.9943 8.98489 18.9649 9.06194C18.9355 9.13899 18.889 9.2084 18.829 9.265L15.306 12.621L16.136 17.351C16.214 17.794 15.776 18.141 15.39 17.943L10.999 15.687L6.61001 17.943C6.5641 17.9668 6.51489 17.9837 6.46401 17.993C6.12201 18.053 5.79601 17.739 5.86401 17.351L6.69401 12.621L3.17201 9.265C3.11726 9.2132 3.07373 9.15069 3.04415 9.08137C3.01456 9.01204 2.99954 8.93737 3.00001 8.862C3.00006 8.75544 3.02947 8.65095 3.08501 8.56C3.12441 8.49407 3.17811 8.43783 3.24215 8.39542C3.30619 8.35302 3.37893 8.32553 3.45501 8.315L8.35301 7.619V7.619ZM10.999 14.527C11.0797 14.5267 11.1593 14.5459 11.231 14.583L14.917 16.477L14.223 12.52C14.2066 12.429 14.2128 12.3354 14.2411 12.2473C14.2693 12.1593 14.3187 12.0795 14.385 12.015L17.292 9.245L13.24 8.669C13.1561 8.65633 13.0765 8.62351 13.0081 8.57335C12.9396 8.52319 12.8844 8.45719 12.847 8.381L11 4.723L10.999 4.726V14.526V14.527Z" fill="#7FBD42"/>
</svg>
