<svg width="70" height="68" viewBox="0 0 70 68" fill="none" xmlns="http://www.w3.org/2000/svg">
<path d="M0.0239563 23.453C0.101479 23.1006 0.35878 22.8148 0.701126 22.7007L24.1294 14.8913C24.6664 14.7124 25.2473 15.0026 25.4264 15.5397C25.6055 16.077 25.3152 16.6578 24.7778 16.8368L5.20792 23.36L30.2201 27.71L62.9289 4.11975L29.1572 15.377C28.6201 15.5557 28.0393 15.2659 27.8602 14.7286C27.6811 14.1913 27.9715 13.6105 28.5088 13.4315L68.6505 0.0508637C68.6642 0.046352 68.6739 0.045395 68.6856 0.0423872C68.9766 -0.0431987 69.2991 -0.000542549 69.5615 0.182797C69.9644 0.463891 70.1112 0.991215 69.9117 1.44006L42.732 62.5944C42.5968 62.8988 42.3221 63.1184 41.9955 63.1836C41.9288 63.1969 41.8617 63.2035 41.7951 63.2035C41.5351 63.2035 41.2817 63.1043 41.0894 62.922L29.748 52.1644L19.6929 58.515C19.6882 58.518 19.683 58.5186 19.6782 58.5207C19.5203 58.6171 19.3378 58.6734 19.146 58.6734C19.1076 58.6734 19.069 58.6712 19.0301 58.6669C18.5573 58.6134 18.1834 58.2417 18.1272 57.7692L15.9062 39.0868L0.322823 24.4202C0.0599136 24.1728 -0.0535583 23.8055 0.0239563 23.453ZM4.21712 25.2692L16.9667 37.2687L27.8949 29.387L4.21712 25.2692ZM25.1561 44.9824L39.9856 59.0483L34.4246 35.9866L25.1561 44.9824ZM24.1107 46.8172L21.1132 55.1923L28.2129 50.7082L24.1107 46.8172ZM19.6488 53.198L22.7098 44.6452C22.7119 44.6395 22.715 44.6343 22.7172 44.6286C22.77 44.4891 22.8519 44.3609 22.9611 44.2549L38.1357 29.5268C38.5419 29.1325 39.1912 29.1422 39.5856 29.5484C39.98 29.9548 39.9703 30.604 39.564 30.9983L36.134 34.3274L42.0841 59.0026L65.8844 5.45194L42.5085 28.1403C42.1023 28.5347 41.453 28.5251 41.0586 28.1187C40.6642 27.7122 40.6739 27.0631 41.0802 26.6688L58.1743 10.0775L17.9698 39.0741L19.6488 53.198Z" fill="black"/>
<path d="M3.29029 51.8786C3.55266 51.8786 3.81516 51.7785 4.01531 51.5784L13.0753 42.5184C13.4757 42.1178 13.4757 41.4687 13.0753 41.0682C12.6748 40.6679 12.0255 40.6679 11.6252 41.0682L2.56527 50.1282C2.16482 50.5288 2.16482 51.1779 2.56527 51.5784C2.76543 51.7785 3.02793 51.8786 3.29029 51.8786Z" fill="black"/>
<path d="M19.1451 67.7335C19.4075 67.7335 19.67 67.6334 19.8701 67.4332L28.9301 58.3733C29.3305 57.9727 29.3305 57.3235 28.9301 56.9231C28.5296 56.5228 27.8803 56.5228 27.48 56.9231L18.4201 65.9831C18.0196 66.3836 18.0196 67.0328 18.4201 67.4332C18.6204 67.6333 18.8827 67.7335 19.1451 67.7335Z" fill="black"/>
<path d="M3.29029 67.7335C3.55266 67.7335 3.81516 67.6334 4.01531 67.4332L13.0753 58.3733C13.4757 57.9727 13.4757 57.3235 13.0753 56.9231C12.6748 56.5228 12.0255 56.5228 11.6252 56.9231L2.56527 65.9831C2.16482 66.3836 2.16482 67.0328 2.56527 67.4332C2.76543 67.6333 3.02793 67.7335 3.29029 67.7335Z" fill="black"/>
</svg>
