<svg width="14" height="14" viewBox="0 0 14 14" fill="none" xmlns="http://www.w3.org/2000/svg">
<path d="M8.02965 5.97095C7.48357 5.42509 6.74306 5.11845 5.97095 5.11845C5.19884 5.11845 4.45833 5.42509 3.91225 5.97095L1.85288 8.02965C1.30679 8.57574 1 9.31639 1 10.0887C1 10.861 1.30679 11.6016 1.85288 12.1477C2.39897 12.6938 3.13963 13.0006 3.91191 13.0006C4.6842 13.0006 5.42486 12.6938 5.97095 12.1477L7.0003 11.1184" stroke="black" stroke-width="2" stroke-linecap="round" stroke-linejoin="round"/>
<path d="M5.9707 8.02965C6.51678 8.5755 7.25729 8.88214 8.0294 8.88214C8.80152 8.88214 9.54202 8.5755 10.0881 8.02965L12.1475 5.97095C12.6936 5.42486 13.0004 4.6842 13.0004 3.91191C13.0004 3.13963 12.6936 2.39897 12.1475 1.85288C11.6014 1.30679 10.8607 1 10.0884 1C9.31615 1 8.57549 1.30679 8.0294 1.85288L7.00005 2.88223" stroke="black" stroke-width="2" stroke-linecap="round" stroke-linejoin="round"/>
</svg>
