<svg width="93" height="42" viewBox="0 0 93 42" fill="none" xmlns="http://www.w3.org/2000/svg">
<path d="M10.7556 23.9899H10.2743V28.2591H10.7556V23.9899Z" fill="#7FBD42"/>
<path d="M13.225 23.9829H13.6715L16.3641 27.408V23.9829H16.8315V28.2521H16.4478L13.6924 24.7572V28.2521H13.225V23.9829Z" fill="#7FBD42"/>
<path d="M18.973 27.6312L19.273 27.2755C19.4639 27.4698 19.6921 27.6236 19.9437 27.7279C20.1954 27.8321 20.4655 27.8847 20.7379 27.8824C21.3099 27.8824 21.6866 27.5754 21.6866 27.1848C21.6866 26.7872 21.4773 26.564 20.5774 26.3756C19.6776 26.1873 19.1474 25.8455 19.1474 25.1409C19.1596 24.9717 19.2057 24.8067 19.283 24.6557C19.3603 24.5047 19.4673 24.3708 19.5975 24.2621C19.7278 24.1533 19.8786 24.072 20.0409 24.0228C20.2033 23.9736 20.3739 23.9577 20.5426 23.9759C21.0899 23.9592 21.6241 24.1456 22.0424 24.4991L21.7633 24.8688C21.4203 24.5723 20.9821 24.4089 20.5286 24.4084C19.9775 24.4084 19.6218 24.7154 19.6218 25.106C19.6218 25.5106 19.845 25.7338 20.7797 25.9361C21.7145 26.1384 22.1749 26.4942 22.1749 27.1429C22.1749 27.8754 21.568 28.3497 20.717 28.3497C20.0669 28.3538 19.441 28.1034 18.973 27.6522" fill="#7FBD42"/>
<path d="M25.5024 24.4294H24.0724V23.9899H27.4277V24.4294H25.9907V28.2521H25.5024V24.4294Z" fill="#7FBD42"/>
<path d="M30.0715 23.9899H29.5901V28.2591H30.0715V23.9899Z" fill="#7FBD42"/>
<path d="M33.664 24.4294H32.2339V23.9899H35.5823V24.4294H34.1523V28.2521H33.664V24.4294Z" fill="#7FBD42"/>
<path d="M37.6401 26.4663V23.9899H38.1215V26.4384C38.1215 27.3592 38.6098 27.8754 39.4259 27.8754C40.2421 27.8754 40.7095 27.401 40.7095 26.4802V23.9899H41.1908V26.4314C41.206 26.6739 41.1714 26.917 41.089 27.1456C41.0067 27.3742 40.8784 27.5835 40.7121 27.7606C40.5457 27.9377 40.3448 28.0788 40.1218 28.1753C39.8989 28.2718 39.6585 28.3216 39.4155 28.3216C39.1725 28.3216 38.9321 28.2718 38.7091 28.1753C38.4861 28.0788 38.2852 27.9377 38.1189 27.7606C37.9525 27.5835 37.8242 27.3742 37.7419 27.1456C37.6596 26.917 37.6249 26.6739 37.6401 26.4314" fill="#7FBD42"/>
<path d="M44.6787 24.4294H43.2487V23.9899H46.5971V24.4294H45.1671V28.2521H44.6787V24.4294Z" fill="#7FBD42"/>
<path d="M48.7177 23.9829H51.8009V24.4294H49.199V25.8803H51.5289V26.3198H49.199V27.8126H51.8288V28.2521H48.7177V23.9829Z" fill="#7FBD42"/>
<path d="M5.65636 16.2538C6.4114 16.3015 7.16742 16.1775 7.86767 15.8911C8.09355 15.7761 8.28034 15.5968 8.40448 15.3759C8.52862 15.1549 8.58456 14.9021 8.56525 14.6494C8.56241 14.3807 8.49268 14.1169 8.36237 13.8818C8.23206 13.6468 8.04526 13.4479 7.81884 13.3031C7.05426 12.8145 6.23176 12.4232 5.37035 12.1381C4.72254 11.9027 4.08695 11.635 3.46597 11.3359C2.92378 11.0718 2.41937 10.7363 1.96618 10.3384C1.54048 9.94913 1.20276 9.47348 0.975626 8.94324C0.717437 8.32285 0.593803 7.65475 0.612887 6.98305C0.585684 6.29689 0.722788 5.61417 1.01278 4.99171C1.30278 4.36925 1.73727 3.82508 2.28009 3.40449C3.60284 2.46818 5.20305 2.00606 6.82131 2.09304C7.75826 2.08827 8.69323 2.17943 9.61161 2.3651C10.2869 2.48456 10.9516 2.65716 11.5997 2.8813L10.9021 5.97156C10.3817 5.75121 9.84234 5.57843 9.29073 5.45536C8.5472 5.28607 7.78607 5.20644 7.02361 5.21818C6.37412 5.20246 5.73042 5.34364 5.14713 5.62975C4.92752 5.74486 4.74527 5.92017 4.62172 6.13514C4.49817 6.35011 4.43845 6.59584 4.44955 6.84353C4.44796 7.08386 4.49791 7.32173 4.59604 7.54111C4.70122 7.778 4.87031 7.9809 5.08435 8.12707C5.36916 8.33785 5.67547 8.5179 5.99817 8.66421C6.45202 8.87507 6.91788 9.05909 7.39332 9.21529C8.17834 9.50275 8.94685 9.83345 9.69532 10.2058C10.2683 10.4926 10.7931 10.8668 11.2509 11.315C11.6507 11.7075 11.9581 12.1841 12.1508 12.7101C12.3568 13.3185 12.4536 13.9585 12.4368 14.6006C12.4709 15.3041 12.3216 16.0045 12.0037 16.633C11.6858 17.2615 11.21 17.7967 10.6231 18.1861C9.45582 18.9953 7.79094 19.3999 5.62846 19.3999C4.45503 19.4304 3.2826 19.3085 2.14058 19.0372C1.5047 18.8824 0.878183 18.6914 0.264099 18.4651L0.961675 15.2772C1.62332 15.5513 2.30126 15.7843 2.99162 15.9748C3.87427 16.195 4.78162 16.3005 5.69124 16.2887" fill="#F15C27"/>
<path d="M21.7773 2.50461H17.9616V18.9953H21.7773V2.50461Z" fill="#F15C27"/>
<path d="M33.3083 19.0023C32.2479 16.8305 31.1644 14.3425 30.0575 11.5382C28.8984 8.5801 27.8903 5.56501 27.037 2.50461H31.1039C31.3341 3.43238 31.6062 4.42294 31.9131 5.48326C32.22 6.54357 32.5479 7.61086 32.8967 8.67118C33.2455 9.73149 33.5943 10.7639 33.9709 11.7614C34.3476 12.759 34.6685 13.6588 34.9964 14.4611C35.3173 13.6588 35.6521 12.759 36.0148 11.7614C36.3776 10.7639 36.7124 9.73149 37.0752 8.67118C37.4379 7.61086 37.7727 6.57845 38.0727 5.48326C38.3727 4.38806 38.6308 3.43238 38.8958 2.50461H42.8162C41.8861 5.72276 40.8793 8.74559 39.7957 11.5731C38.7121 14.4006 37.6262 16.877 36.538 19.0023H33.3083Z" fill="#F15C27"/>
<path d="M51.48 2.50461H47.6643V18.9953H51.48V2.50461Z" fill="#F15C27"/>
<path fillRule="evenodd" clipRule="evenodd" d="M5.30756 34.4675C5.30756 34.4675 41.1002 30.889 65.4386 41.52C65.9618 41.3316 66.4379 41.0317 66.8337 40.6411C68.9683 38.7157 66.1362 37.4183 66.1362 37.4183C66.1362 37.4183 42.293 28.2242 5.30756 34.4675Z" fill="#F15C27"/>
<path fillRule="evenodd" clipRule="evenodd" d="M73.5863 7.49226C73.5863 7.49226 82.4943 4.26946 91.221 9.02693C91.6364 8.87655 92.0147 8.63866 92.3302 8.32935C94.0043 6.75283 91.6814 5.7553 91.6814 5.7553C91.6814 5.7553 82.4943 2.06512 73.5863 7.52714" fill="#7FBD42"/>
<path d="M80.9248 23.1877C80.9248 23.1877 74.2629 20.9764 72.7422 11.5243L69.8473 13.9239C69.8473 13.9239 70.7751 21.5973 80.9248 23.1877Z" fill="#F15C27"/>
<path d="M73.0492 7.02488C73.1154 7.32699 73.0905 7.64196 72.9776 7.9299C72.8647 8.21784 72.6689 8.4658 72.415 8.64238C72.161 8.81896 71.8604 8.91622 71.5512 8.92183C71.242 8.92745 70.938 8.84117 70.6779 8.67392C70.4177 8.50667 70.213 8.26598 70.0898 7.98233C69.9665 7.69868 69.9302 7.38482 69.9854 7.08051C70.0406 6.7762 70.1849 6.49512 70.4 6.27287C70.6151 6.05062 70.8913 5.8972 71.1936 5.83203C71.3938 5.78794 71.6007 5.78385 71.8025 5.82001C72.0043 5.85616 72.1969 5.93183 72.3694 6.04269C72.5418 6.15354 72.6906 6.29738 72.8073 6.46594C72.924 6.6345 73.0061 6.82445 73.0492 7.02488Z" fill="#F15C27"/>
<path d="M82.2572 20.4323C82.2572 20.4323 87.1193 15.3958 83.9732 6.3273L87.6774 7.02488C87.6774 7.02488 90.4677 14.2029 82.2572 20.4114" fill="#7FBD42"/>
<path d="M81.6014 2.44881C81.6856 2.74424 81.8553 3.00815 82.0892 3.20726C82.3231 3.40638 82.6107 3.53179 82.9157 3.56769C83.2208 3.60359 83.5297 3.54837 83.8034 3.40898C84.0771 3.2696 84.3035 3.0523 84.4539 2.78447C84.6043 2.51664 84.672 2.21028 84.6486 1.904C84.6251 1.59773 84.5115 1.30525 84.3221 1.06344C84.1327 0.821632 83.8759 0.641318 83.5841 0.545231C83.2924 0.449143 82.9787 0.441584 82.6827 0.523505C82.2842 0.635709 81.9465 0.901483 81.7437 1.26247C81.541 1.62345 81.4898 2.05013 81.6014 2.44881Z" fill="#7FBD42"/>
<path fillRule="evenodd" clipRule="evenodd" d="M82.1804 7.86198C82.1804 7.86198 73.4607 8.81766 68.7451 16.8607C68.3229 16.8929 67.8988 16.831 67.5034 16.6793C65.4107 15.9818 66.8058 14.0913 66.8058 14.0913C66.8058 14.0913 72.3864 6.80167 82.2013 7.86198" fill="#F15C27"/>
<path d="M89.498 17.4885C87.782 17.4188 86.1915 18.8837 85.0196 20.4393C84.3615 22.3418 83.2427 24.0518 81.7629 25.4167C80.2831 26.7816 78.4884 27.7589 76.539 28.2613C74.5896 28.7637 72.5461 28.7757 70.5909 28.2961C68.6357 27.8165 66.8297 26.8603 65.3341 25.5128C63.8384 24.1653 62.6996 22.4685 62.0194 20.5738C61.3391 18.6791 61.1386 16.6454 61.4356 14.6543C61.7326 12.6633 62.518 10.7767 63.7217 9.16301C64.9253 7.54934 66.5097 6.25878 68.3336 5.40652C72.812 2.48367 71.2494 0.0491333 71.2494 0.0491333C70.7941 0.0515544 70.3404 0.103007 69.8961 0.2026C67.8176 0.656512 65.8488 1.51538 64.1021 2.73017C62.3555 3.94497 60.8652 5.49189 59.7164 7.28262C58.5676 9.07335 57.7828 11.0728 57.4067 13.1669C57.0307 15.2609 57.0707 17.4085 57.5246 19.4871C57.9785 21.5656 58.8374 23.5344 60.0522 25.2811C61.267 27.0277 62.8139 28.518 64.6046 29.6668C66.3954 30.8156 68.3948 31.6004 70.4889 31.9765C72.5829 32.3526 74.7305 32.3125 76.8091 31.8586C79.2669 31.2812 81.5632 30.1581 83.5278 28.5726C85.4925 26.9871 87.0752 24.9798 88.1587 22.6994C88.2424 22.6994 88.3191 22.3227 88.3958 22.1135C88.993 20.6358 89.3645 19.0767 89.498 17.4885C89.498 17.4188 89.498 17.4885 89.498 17.4885Z" fill="#7FBD42"/>
</svg>
