<svg width="22" height="22" viewBox="0 0 22 22" fill="none" xmlns="http://www.w3.org/2000/svg">
<circle cx="11" cy="11" r="11" fill="white"/>
<path d="M13.3733 4C14.0969 4 14.7818 4.16505 15.3919 4.45906L14.2114 5.63065C14.0497 5.79067 13.9214 5.98117 13.8338 6.19113C13.7462 6.40108 13.7011 6.62632 13.7011 6.85382C13.7011 7.08131 13.7462 7.30655 13.8338 7.5165C13.9214 7.72646 14.0497 7.91696 14.2114 8.07698C14.5393 8.40148 14.982 8.58351 15.4433 8.58351C15.9046 8.58351 16.3473 8.40148 16.6751 8.07698L17.7263 7.03361C17.9031 7.52066 18 8.04604 18 8.59352C18 11.1309 15.9283 13.1874 13.3733 13.1874C12.7617 13.1874 12.1781 13.0695 11.6442 12.8558L6.97293 17.4935C6.64518 17.818 6.20264 18 5.74145 18C5.28027 18 4.83772 17.818 4.50998 17.4935C4.3484 17.3336 4.22014 17.1431 4.13261 16.9333C4.04507 16.7234 4 16.4983 4 16.2709C4 16.0435 4.04507 15.8184 4.13261 15.6086C4.22014 15.3987 4.3484 15.2083 4.50998 15.0483L9.14003 10.4511C8.87956 9.8665 8.74535 9.23352 8.74617 8.59352C8.74617 6.05655 10.8179 4 13.3733 4Z" stroke="#F15C27" stroke-width="1.5" stroke-linejoin="round"/>
</svg>
