<svg width="22" height="22" viewBox="0 0 22 22" fill="none" xmlns="http://www.w3.org/2000/svg">
<circle cx="11" cy="11" r="11" fill="white"/>
<path d="M5.32951 3.70593V16.8353H4.6001V18.2942H7.51774V16.8353H6.78833V13.1883H16.2707C16.4641 13.1883 16.6497 13.1114 16.7865 12.9746C16.9232 12.8379 17.0001 12.6523 17.0001 12.4589V5.16476C17.0001 4.9713 16.9232 4.78578 16.7865 4.64898C16.6497 4.51219 16.4641 4.43534 16.2707 4.43534H6.78833V3.70593H5.32951ZM8.24716 5.89417V7.35299H9.70598V5.89417H11.1648V7.35299H12.6236V5.89417H14.0825V7.35299H15.5413V8.81181H14.0825V10.2706H15.5413V11.7295H14.0825V10.2706H12.6236V11.7295H11.1648V10.2706H9.70598V11.7295H8.24716V10.2706H6.78833V8.81181H8.24716V7.35299H6.78833V5.89417H8.24716Z" fill="#323D43"/>
<path d="M8.24707 8.81182H9.70589V10.2706H8.24707V8.81182ZM11.1647 8.81182H12.6235V10.2706H11.1647V8.81182ZM9.70589 7.353H11.1647V8.81182H9.70589V7.353ZM12.6235 7.353H14.0824V8.81182H12.6235V7.353Z" fill="#323D43"/>
</svg>
