<svg width="633" height="476" viewBox="0 0 633 476" fill="none" xmlns="http://www.w3.org/2000/svg">
<path fillRule="evenodd" clipRule="evenodd" d="M631.454 23.4178C631.454 11.2243 621.748 1.33813 609.761 1.33813H23.6741C11.6874 1.33813 1.9693 11.2243 1.9693 23.4178V452.237C1.9693 464.432 11.6874 474.317 23.6741 474.317H609.761C621.748 474.317 631.454 464.432 631.454 452.237V23.4178Z" stroke="black" stroke-width="2"/>
<path fillRule="evenodd" clipRule="evenodd" d="M165.199 226.83C196.728 226.83 222.28 200.85 222.28 168.802C222.28 136.754 196.728 110.773 165.199 110.773C133.671 110.773 108.107 136.754 108.107 168.802C108.107 200.85 133.671 226.83 165.199 226.83Z" stroke="black" stroke-width="2"/>
<path d="M138.466 474.318L327.552 203.542L405.729 310.788L506.277 150.046L631.454 335.107" stroke="black" stroke-width="2"/>
</svg>
