<svg width="66" height="158" viewBox="0 0 66 158" fill="none" xmlns="http://www.w3.org/2000/svg">
<path d="M44.4106 83.4089L44.527 83.4523L44.5415 83.461L45.1435 83.8311L47.1561 85.6703L48.8808 87.2464L50.5938 89.2938L52.714 91.8184L54.5143 93.9641L56.2012 95.9769L57.5216 98.5188L59.2288 100.676L61.2966 103.29L62.0063 104.19L62.7217 105.095L63.6815 106.067L63.9113 106.361L64.0247 106.706L64.2254 110.942L64.3562 111.121L64.6093 111.162L65.0339 111.15L64.2952 112.897L63.7542 114.181L62.8003 116.422L62.6694 116.931L62.6752 117.405L62.7566 117.735L63.2191 119.632L63.7804 121.914L63.7222 122.75V122.767L63.6117 124.378L63.4372 126.92L63.3121 128.721L63.1144 131.651L62.9137 132.411L62.777 132.929L62.7857 133.25L62.8962 133.872L62.8759 134.193L62.6897 134.632L62.3931 134.97L60.9651 135.962L60.7586 136.066L60.5783 136.084L60.206 136.014L60.0024 136.026L58.1236 136.593L57.6466 136.642L57.5477 136.763L57.4896 137.079L57.3616 137.267L57.1144 137.255L56.8526 137.128L56.684 136.969L56.5414 136.628L56.2157 136.408L55.8114 136.295L55.4217 136.275L54.9767 136.39L54.6074 136.642L53.2346 137.888L53.1212 138.024L52.6879 138.539L52.3243 139.305L52.1905 140.251L52.2341 140.465L52.4697 141.038L52.3912 141.243L51.9259 141.804L51.8968 141.905L51.8182 142.18L51.8241 142.992L51.7165 143.357L51.446 143.643L50.0732 144.56L49.8231 144.736L50.1459 145.644L50.46 146.15L50.5415 146.361L50.6549 146.532L50.8759 146.604L51.0563 146.636L51.4867 146.804L51.6118 146.873L51.7019 146.972L51.8037 147.183L51.8822 147.293L51.9433 147.333L52.1091 147.408L52.1643 147.446L52.6384 147.966L52.6995 148.073L52.7577 149.427L52.8362 149.832L53.2317 150.63L53.3306 151.139L52.8391 151.558L52.7926 151.989L52.8362 152.764L52.7722 152.859L52.653 152.949L52.557 153.053L52.5657 153.183L52.6588 153.279L53.2957 153.658L53.4149 153.834L53.3161 154.1L53.1067 154.476L53.0834 154.806L53.255 155.575L53.2812 155.991L53.2288 156.333L53.1212 156.613L52.9729 156.847H52.9671L51.8473 156.969L49.8609 156.902L48.8255 156.74L48.5231 156.448L48.5841 155.922L47.9443 154.936L48.0984 154.297L48.526 153.941L49.0233 153.695L49.4567 153.386L49.6864 152.825L49.7446 152.165L49.7329 151.422L49.5526 150.789L49.1076 150.459L48.4591 150.439L47.8716 150.497L47.3103 150.404L46.7315 149.944L46.368 149.459L46.1993 149.274L45.9317 149.077L45.7979 149.025L45.4955 148.97L45.3617 148.895L45.2715 148.741L45.2075 148.345L45.1232 148.178L44.9865 148.079L44.8062 147.949L44.4601 147.802L44.1576 147.622L43.9627 147.31L43.8202 146.868L43.6603 146.587L42.7441 145.809L42.5435 145.537L42.1915 144.852L41.9356 144.571L40.6879 143.906L40.5396 143.851L40.4174 143.759L40.176 143.154L40.0713 142.966L39.9405 142.822L39.3035 142.339L39.0563 142.096L38.844 141.781L38.2914 140.367L37.8522 139.91L36.9797 139.783L36.3021 139.756L35.9182 139.363L35.1067 137.579L35.1853 136.885L35.575 135.569L35.4877 134.997L35.1562 134.534L33.513 132.804L33.225 132.628L32.5706 132.316L32.3263 132.102L32.114 131.535L32.0762 130.809L32.1751 130.098L32.3874 129.586L32.9458 128.981L33.2948 128.713L33.6293 128.553L34.0365 128.426L34.2488 128.299L34.2575 128.287L35.4761 126.59L35.7117 125.945L35.7757 125.135L35.5954 123.909V123.224L35.8426 122.883L36.1974 122.7L36.5842 122.076L36.9797 121.833L37.1106 121.581L37.2095 121.066L37.3026 120.815L37.5265 120.517L37.7679 120.349L38.0238 120.213L38.2885 120.014L38.652 119.488L38.7306 118.955L38.5328 117.515L38.3205 115.962L38.367 115.615L38.5473 115.393L38.4979 115.161L38.3728 114.907L38.3292 114.621L38.4456 114.334L38.8469 113.776L38.9923 113.475L39.0301 113.134L38.8876 112.825L38.6724 112.521L38.495 112.197L38.3787 111.792L38.3321 111.454L38.3263 109.959L38.2158 109.32L38.0035 108.724L37.6748 108.071L37.4887 107.377L37.7563 106.171L37.733 105.494L37.4102 104.852L36.3835 103.837L35.9269 103.273L35.2842 101.954L35.0224 101.575L34.8595 101.338L34.3069 101.043L34.1324 101.072L33.9841 101.168L33.8416 101.283L33.6904 101.382L33.5333 101.414L33.2192 101.379L33.0709 101.396L31.1223 102.093L29.6885 102.134L29.0573 102.403L28.9119 102.611L28.6851 103.12L28.5309 103.221L26.4572 102.943H25.8814L25.3433 103.079L24.2004 103.776L23.639 103.981L23.0835 103.924L22.0249 103.108L21.609 103.241L21.3094 103.698L21.1407 104.285V104.985L21.0768 105.346L20.8848 105.485L20.5387 105.378L20.3031 105.17L20.1374 104.901L20.0181 104.571L19.7389 103.805L19.5731 103.551L19.3463 103.374L18.817 103.128L18.5901 102.952L18.4243 102.692L18.3225 102.44L18.1946 102.2L17.9328 101.969L17.101 101.596L16.8451 101.39L16.4874 100.913L15.4898 98.8918L15.1437 98.4089L14.8703 97.8797L14.815 97.7727L14.6725 97.6426L14.498 97.5731L14.2159 97.3881L14.0501 97.203L13.5586 96.3904L13.4743 96.026L13.5732 95.0225L13.355 94.45L12.913 94.1029L11.8281 93.5014L11.4937 93.0966L10.88 91.9398L10.5979 91.7056L10.4001 91.8184L10.2111 92.3302L10.0337 92.5066L9.35021 92.7062L9.07391 92.8508L8.80634 93.1515L8.18977 94.1521L7.82913 94.2389L7.36961 93.646L7.26781 93.3395L7.33761 92.3216L7.37542 92.2059L7.3667 92.0989L7.25327 91.9283L7.09331 91.8473L6.73849 91.8646L6.57562 91.7287L6.45638 91.4106L6.41275 91.1099L6.33422 90.8033L5.3541 89.5974L5.06327 89.3459L4.45833 89.1232L3.73123 88.9786L3.1641 88.7241L3.05358 88.1804L3.26589 87.9549L3.99008 87.6107L4.15876 87.391L4.04825 87.1481L3.30079 86.0925L2.78019 85.8612L2.05892 85.8554L1.43653 85.7137L1.20386 85.0746L1.2882 84.6553L1.47724 84.4991L1.75936 84.5251L2.12581 84.6495L2.37302 84.609L2.90525 84.155L3.16992 83.9873L3.89701 83.8803L4.15295 83.701L4.2402 83.2441L4.22856 82.8768L4.27219 82.5616L4.43797 82.3418L4.80151 82.2869L5.35992 81.9861L5.71183 81.214L5.97359 80.1382L6.25279 78.9988L6.61343 78.2151L7.10203 77.5934L7.69534 77.4199L7.80004 77.1394L7.73897 76.9051L7.42486 76.4424L7.27072 76.1012L7.18929 75.7658L7.16602 75.4158L7.47431 73.1891L8.01236 71.9601L8.10542 71.402L7.93674 70.9132L7.45395 70.4679L6.92172 70.1324L6.79375 69.9156L6.67741 68.4407L6.74721 68.0908L7.01188 67.5442L7.72152 66.4858L8.32646 65.2857L8.53295 65.0139L8.81216 64.7681L8.97212 64.6987L9.10881 64.7305L9.21351 64.8404L9.29786 64.9994L9.43746 65.1295L9.60905 65.0486L9.78937 64.8982L9.94642 64.8057L10.2576 64.7218L10.4059 64.7044L10.595 64.7565L10.7317 64.8953L10.9644 65.3378L11.0487 65.439L11.2494 65.4303L11.3424 65.332L11.4064 65.1961L11.5257 65.0775L11.6246 65.011L11.7118 64.9387L11.831 64.8664L12.0288 64.8028L12.3051 64.6119L12.6338 63.9236L12.8606 63.6663L13.0206 63.5969L13.5441 63.5101L13.7913 63.5275L13.9832 63.6229L14.149 63.727L14.3061 63.7791L14.7423 63.6807L15.1931 63.3973L15.5974 62.9896L15.9057 62.5269L16.1296 62.3216L16.7258 62.0815L16.9003 61.8444L16.9178 61.3499L17.0079 61.1995L17.3075 61.1446L17.45 60.812L17.9648 60.4997L18.0491 60.4477L18.2266 60.1238L18.1975 59.716L17.9706 59.6322L17.642 59.6437L16.8713 59.3748L15.42 59.8143L14.7278 59.5714L14.3468 58.9757L13.9978 57.5789L13.7506 56.9254L13.5237 56.6507L12.9711 56.1215L12.8228 55.7976L12.7937 55.1238L12.8664 54.4586L13.6401 52.6281L13.8233 51.6073L13.9367 51.2892L14.0036 50.9769L13.9251 50.6906L13.704 50.251V49.93L13.9629 49.1752L14.0298 48.4436L13.8058 45.1932L13.6895 44.8722L13.4219 44.5685L13.0991 44.5136L12.753 44.557H12.4244L12.0957 44.4326L12.0317 44.2765L12.3197 43.6547L12.4476 43.2817L12.4709 43.0359L12.3778 41.3326L12.564 41.0492L13.0671 41.4627L13.2329 41.1909V40.9335L13.198 40.6761L13.23 40.3956L13.3201 40.2886L13.6226 40.1585L13.7331 40.0659L13.7593 39.9445L13.6924 39.7189L13.7215 39.5888L15.103 37.4604L15.3734 36.9023L15.545 36.3065L14.9139 35.2018L14.4748 34.7623L14.1112 34.262L13.8262 33.7097L13.6342 33.1082L13.5761 32.5211L13.515 31.9167L13.3667 31.2892L13.0816 31.0463L12.8112 31.0868H12.564L12.4069 30.9769L12.4244 30.6906L12.5989 30.3407L12.7821 30.277L12.9886 30.332L13.23 30.3378L13.5208 30.1614L13.8902 29.6003L14.1316 29.3921L14.3991 29.3025L14.8965 29.2071L15.1699 29.0972L15.4403 29.0509L16.0918 29.1781L16.3943 29.1955L16.6531 29.0769L17.0109 28.7212L17.3104 28.6663L17.7147 28.4176L17.9328 28.0706L18.2527 27.2695L19.2125 26.1938L19.4742 26.0202L19.7273 25.9075L20.498 25.3493L20.8034 25.0717L21.1262 24.5888L21.1204 24.5107L21.1146 24.4384L21.0971 24.2418L20.9575 23.8803V23.3569L20.4195 23.2875L20.1141 22.9375L19.7302 22.044L19.5789 21.8733L19.0293 21.3846L18.8635 21.1533L18.3458 19.9242L18.276 19.4471L18.4011 18.3337L18.3545 17.7062L18.0724 17.3823L17.6827 17.1076L17.3162 16.6275L16.8044 16.4482L16.4495 16.1533L16.1267 15.8005L15.7137 15.4477L14.1054 14.7334L13.8407 14.369L13.8524 13.8543L13.9571 13.354L14.3264 12.4141L14.911 11.509L15.0506 11.0897L14.9256 10.5344L14.6173 9.75073L14.4893 9.59746L13.7593 9.33141L13.5179 9.20417L13.2823 8.99595L13.1136 8.75593L12.8286 8.21516L12.6134 7.98381L12.119 7.68017L11.9328 7.39966L11.8805 7.10469L11.9445 6.91672L12.0463 6.75767L12.1015 6.54367L12.0724 6.24292L11.9852 5.97687L11.7002 5.47658L11.3075 5.19896L10.246 5.14402L9.78937 4.92424L9.67594 5.43899L9.61196 6.02603L9.44037 6.3904L9.00411 6.23135L8.89941 6.04338L8.85578 5.80336L8.77726 5.59225L8.55913 5.49104L8.29447 5.55755L8.07634 5.70793L7.85821 5.80625L7.59646 5.71949L7.35506 5.17872L7.70407 3.74726L7.69534 3.20648L7.52084 3.12551L7.23582 2.85946L7.10203 2.77849L6.87227 2.79006L6.7414 2.88549L6.62215 2.92597L6.4302 2.76692L6.33713 2.49798L6.29351 1.33835L6.59598 1.01736L6.97116 0.826494L7.35506 0.809143L7.70116 1.01157L8.6871 1.98902L9.89989 2.92597L10.0802 2.99827L10.6095 3.11394L11.1854 3.3424L11.2581 3.38578L11.4384 3.32505L11.7089 3.10238L11.8398 3.03876H12.1161L12.5261 3.16021L12.7617 3.18335L12.9304 3.13129L13.2416 2.92597L13.4161 2.89416L13.768 3.01851L14.8761 3.80509L15.2397 4.14922L15.5799 4.88664L15.8184 5.2568L16.1209 5.4708L16.5019 5.58647L17.3191 5.64431L17.9328 5.49682L18.3982 5.22499L18.878 5.02545L19.547 5.09486L20.1461 5.28283L20.6638 5.37247H20.6725L21.1727 5.30885L21.6933 5.01388L22.3245 4.84037L22.8625 5.17583L23.3657 5.6819L23.8775 6.01736L24.34 6.20532L24.8984 6.53789L25.3724 6.93696L25.5847 7.33025L25.8145 7.49798L25.6691 7.64546L25.576 8.29613L25.7272 9.66975L26.1897 10.7571L26.3409 10.8323L26.498 10.8496L26.6201 10.9075L26.6667 11.1012V11.7808L26.8877 13.14L27.4606 14.476L29.0835 16.8184L30.18 17.9202L30.7994 18.3771L31.1194 18.6576L31.2532 18.9381L31.3462 19.236L31.5614 19.5454L32.2624 20.3493L32.4194 20.6241L32.623 21.3152L32.8498 21.8126L32.8906 21.8704L32.7684 22.0816L32.6463 22.1047L32.5125 22.0758L32.3438 22.1394L32.0122 22.4199L31.9017 22.6021L31.9366 23.2296L31.9832 23.4002L32.0588 23.5593L32.0704 23.7068L31.9366 23.8485L31.4626 24.129L31.323 24.2591L31.1601 24.6061L31.2764 24.9156L31.5091 25.2192L31.672 25.5547L31.6661 25.7947L31.544 26.48L31.5324 26.7924L31.8057 27.871L32.1431 31.7114L32.0675 34.2244L32.1955 34.8837L32.4747 35.2597L31.9308 36.2227L31.7912 36.7287L32.0122 37.2464L32.1228 37.4344L32.1286 37.6397L32.0762 38.14L32.1344 38.4581L32.274 38.6287L32.4543 38.753L32.6288 38.9468L33.0244 40.0804L33.1581 42.5789L33.542 43.9959L33.5362 44.5772L33.6293 44.7825L33.7631 44.9821L33.862 45.2655L33.9667 45.8005L33.9492 46.4482L33.7805 46.8473L32.9749 47.6136L32.7597 47.738L32.6317 47.8623L32.5561 47.9867L32.4863 48.2354L32.4165 48.3424L32.1955 48.513L31.733 48.7848L31.5411 48.967L31.32 49.4153L31.163 50.0168V50.6009L31.4073 51.0087L29.1679 52.7293L28.9177 53.0532L28.7898 53.4002L28.6909 54.1666L28.4582 55.1643L28.3826 55.8062L28.1499 56.7808L28.1557 57.1336L28.3361 58.432L28.6909 59.395L28.72 59.5888L28.7316 59.8143L28.7956 59.9965L29.1504 60.1382L29.2551 60.2915L29.2842 60.4795L29.2435 60.6327L29.6972 60.7397L30.0869 60.6761H30.4766L30.9361 60.9711L31.544 62.7611L31.6138 63.2094L31.6022 63.3916L31.4742 63.5795L31.2881 63.7935L31.2008 63.9757L31.1426 64.4731L31.1485 64.9705L31.2357 65.4795L31.544 66.402L31.957 67.1452L32.2594 67.4951L33.0011 67.819L33.0244 68.2499L32.7568 69.2244L32.8789 69.6437L33.4751 70.1758L33.6962 70.5315L33.7078 70.7918L33.5857 71.2603L33.6322 71.5032L33.7834 71.6391L33.9289 71.5205L34.0336 71.2892L34.0917 71.0867L34.1499 71.3701L33.9987 71.9688L33.9696 72.3129L34.2022 73.325L34.2371 76.5928L34.4233 77.9838L34.3244 78.5477L33.8998 79.1463L33.6497 79.716L33.7195 80.3869L33.9696 81.0434L35.0428 82.8161L35.4616 83.7299L35.8455 84.1868L36.0083 84.4355L36.2003 84.6379L36.4737 84.7218L36.8401 84.6553L37.4538 84.4239L37.7621 84.4529L38.0238 84.6321L38.1751 84.8693L38.431 85.4332L38.6986 85.7311L39.2774 86.2545L39.3937 86.5321L39.5449 86.7403L39.8532 86.9717L40.0801 87.2435L39.987 87.5703L39.766 87.9375V88.2151L39.8358 88.5014L39.795 88.8745L39.6962 89.0278L39.3588 89.288L39.2483 89.4355L39.2308 89.6321L39.3704 89.9647L39.3937 90.1238L39.0505 91.0607L38.9167 91.2921L38.4077 91.8386L38.0936 92.2724L37.9948 92.79L38.3321 94.5309L38.431 94.8172L39.1319 95.6385L39.2483 95.8525L39.2948 96.1214L39.417 96.4482L39.574 96.7519L39.7252 96.9659L40.0684 97.2146L40.3593 97.2984L40.6617 97.3273L41.0107 97.4517L41.3423 97.7496L41.3307 98.0098L41.226 98.2701L41.2667 98.5679L41.5517 98.7704L41.8658 98.6923L42.1915 98.513L42.5056 98.4118L42.7907 98.3568L43.1513 98.2209L43.4596 98.0243L43.5876 97.7929L43.6166 97.6194L43.6981 97.524L43.9191 97.3823L43.954 97.2146L43.8319 97.0121L43.6748 96.8039L43.5876 96.6188L43.7795 96.0723L44.2332 95.5778L44.5822 95.1035L44.4543 94.6235L44.1402 94.048L44.2158 93.5304L44.5939 93.2701L45.1901 93.4436L45.446 93.6518L45.8823 94.1029L46.1498 94.262L45.9753 94.956L46.144 95.7947L46.5861 96.3528L47.223 96.1908L47.3161 96.3094L47.5488 96.5061L47.6418 96.6188L48.0955 96.5465L48.5754 96.9745L48.9535 97.6281L49.1106 98.2036L49.2269 98.4002L49.7126 98.9786L49.794 99.1029L50.1256 99.2157L50.3641 99.4904L50.7363 100.08L51.6816 100.907L51.7223 100.986L51.7746 101.116L51.8502 101.246L51.9491 101.324L52.1294 101.307L52.4203 101.098L52.5715 101.043L52.7111 100.896L52.8624 100.563L52.9729 100.213V100.011L52.653 99.528L51.8415 97.8739L51.6437 97.2666L51.5623 96.5408L50.9428 95.5778L50.78 95.2452L50.7974 94.9069L50.8614 94.5743L50.873 94.2591L50.652 93.7183L49.9511 92.631L49.7998 92.0555L49.7591 91.3615L49.6951 90.974L49.5555 90.517L49.5323 90.1787L49.4625 90.0486L49.2124 89.7507L48.9913 89.4297L48.7586 88.7299L48.6539 88.1602L48.3747 87.7814L47.6331 87.6397L45.5914 87.7062L45.3006 87.6715L44.9283 87.4922L44.4804 87.0295L44.3815 86.5003L44.5211 85.2076L44.3874 83.8918L44.4339 83.5708L44.4804 83.4147L44.4106 83.4089ZM41.5226 54.3343L41.6738 53.7848L41.8833 53.6142L42.4329 53.8861L42.1188 54.0567L42.1072 54.2793L42.1828 54.5338L42.0956 54.7883L41.8803 54.8837L41.6593 54.8259L41.4732 54.69L41.3568 54.5714L41.5197 54.3343H41.5226ZM29.0719 3.36843L29.0981 3.38578L29.2842 3.60845L29.0719 3.36843ZM31.2735 5.28283L31.2822 5.28861L33.1989 7.31001L31.2735 5.28572V5.28283ZM41.7029 37.7033L41.8774 38.0908L42.1334 38.3829H42.1276L41.8716 38.085L41.7029 37.7033V37.7033ZM45.1377 40.9277L45.2221 41.0781L45.5914 41.3846L45.2133 41.0723L45.1377 40.9277Z" stroke="black" stroke-width="0.5" stroke-linecap="round" stroke-linejoin="round"/>
</svg>
