<svg width="148" height="128" viewBox="0 0 148 128" fill="none" xmlns="http://www.w3.org/2000/svg">
<path d="M137.874 15.9816L137.902 16.722L137.961 16.893L138.082 16.9937L138.16 16.968L138.244 16.907L138.389 16.9L138.474 16.9516L138.654 17.1202L138.764 17.1718L138.769 17.5162L138.549 18.4299L138.701 18.7743L138.867 18.8305L139.006 18.7673L139.144 18.6712L139.312 18.6291L139.451 18.6923L139.502 18.8282L139.53 18.9805L139.596 19.1L139.872 19.2007L139.983 18.9688L140.025 18.5939L140.097 18.2659L140.386 18.4065L141.06 18.4416L141.311 18.6173L141.491 18.936L141.548 19.1047L141.566 19.2968L141.531 19.4327L141.466 19.5357L141.426 19.6552L141.459 19.8427L141.576 20.0231L141.89 20.2175L142.026 20.3651L142.206 20.7095L142.314 20.8618L142.464 20.9953L142.616 21.0773L143.077 21.2484L143.159 21.3468L143.356 21.8481L143.436 22.2019L143.347 22.469L142.977 23.0477L142.742 23.6475L142.677 23.9684L142.67 24.2964L142.839 24.5284L143.858 24.9829L144.12 25.2078L144.324 25.4327L144.551 25.6202L144.874 25.735L145.106 26.0419L145.355 26.2153L145.533 26.4214L145.561 26.8221L145.481 27.5319L145.526 27.8365L145.854 28.6214L145.959 28.769L146.308 29.0806L146.404 29.1883L146.648 29.7577L146.84 29.9802L147.18 30.0248V30.3574L147.271 30.5894L147.283 30.7136L147.288 30.7604L147.292 30.812L147.086 31.1212L146.892 31.2993L146.402 31.6554L146.243 31.728L146.076 31.8381L145.467 32.5246L145.263 33.0353L145.125 33.2556L144.87 33.4125L144.68 33.4477L144.453 33.6749L144.289 33.7499L144.097 33.7405L143.682 33.6585L143.509 33.689L143.335 33.7593L143.021 33.8202L142.853 33.8788L142.7 34.0123L142.466 34.3708L142.283 34.4832L142.131 34.4785L142 34.4434L141.883 34.4832L141.773 34.7058L141.761 34.8885L141.859 34.9588H142.016L142.187 34.9331L142.368 35.0877L142.461 35.4883L142.499 35.8725L142.536 36.2474L142.658 36.6293L142.839 36.9831L143.07 37.304L143.349 37.5852L143.75 38.2904L143.642 38.6699L143.471 39.026L142.595 40.3826L142.576 40.4646L142.618 40.6075L142.602 40.6848L142.532 40.7434L142.339 40.8254L142.283 40.8933L142.262 41.0714L142.286 41.2354V41.3994L142.178 41.5727L141.859 41.3103L141.742 41.4907L141.801 42.5755L141.787 42.7325L141.705 42.9714L141.522 43.3674L141.564 43.4658L141.773 43.5431H141.981L142.201 43.5173L142.405 43.5525L142.574 43.7469L142.646 43.9531L142.789 46.0265L142.747 46.4928L142.581 46.973V47.1769L142.724 47.4557L142.773 47.6384L142.731 47.8376L142.658 48.0414L142.541 48.6927L142.049 49.8595L142.004 50.2835L142.023 50.7146L142.117 50.9208L142.468 51.2582L142.614 51.4339L142.771 51.8509L142.991 52.7412L143.232 53.1207L143.67 53.2754L144.591 52.9942L145.078 53.1652L145.287 53.1582L145.43 53.2121L145.448 53.4722L145.336 53.6783L145.282 53.7111L144.956 53.9103L144.865 54.1211L144.675 54.1563L144.619 54.2523L144.61 54.5663L144.5 54.7186L144.12 54.8709L143.977 55.0021L143.78 55.2973L143.525 55.5573L143.239 55.7377L142.963 55.801L142.864 55.7682L142.759 55.7026L142.637 55.6417L142.48 55.6299L142.147 55.6862L142.047 55.7307L141.904 55.8947L141.695 56.3351L141.519 56.457L141.393 56.4968L141.316 56.5437L141.259 56.5905L141.196 56.6327L141.121 56.7077L141.079 56.7943L141.02 56.8576L140.892 56.8623L140.838 56.7967L140.69 56.5132L140.603 56.4242L140.484 56.3914L140.39 56.4031L140.193 56.457L140.095 56.5155L139.983 56.6116L139.875 56.6631L139.786 56.5788L139.732 56.4781L139.664 56.4078L139.577 56.389L139.476 56.4335L139.298 56.5905L139.167 56.7639L138.783 57.53L138.333 58.2047L138.164 58.5538L138.12 58.7764L138.193 59.7159L138.275 59.8541L138.612 60.0673L138.919 60.3532L139.027 60.6648L138.968 61.0209L138.626 61.8034L138.432 63.2232L138.446 63.4457L138.497 63.6613L138.593 63.8792L138.792 64.1744L138.83 64.322L138.762 64.5L138.387 64.6101L138.075 65.0061L137.848 65.5075L137.672 66.2338L137.506 66.9202L137.284 67.4122L136.927 67.6043L136.698 67.6395L136.592 67.78L136.564 67.9815L136.571 68.2158L136.515 68.5063L136.353 68.6211L135.892 68.6914L135.726 68.7992L135.388 69.0897L135.231 69.1155L134.999 69.0358L134.819 69.0194L134.699 69.1178L134.645 69.3849L134.793 69.7926L135.189 69.8839L135.648 69.8886L135.979 70.0362L136.452 70.7086L136.522 70.8633L136.414 71.0038L135.955 71.2241L135.822 71.367L135.892 71.7137L136.253 71.8754L136.714 71.9691L137.096 72.112L137.279 72.2737L137.9 73.0445L137.949 73.2389L137.977 73.431L138.054 73.6325L138.157 73.7192L138.382 73.7075L138.483 73.759L138.553 73.8692L138.558 73.9371L138.535 74.0097L138.49 74.6587L138.556 74.8532L138.849 75.2304L139.078 75.1765L139.469 74.5369L139.638 74.3448L139.812 74.251L140.245 74.1222L140.357 74.0097L140.477 73.6841L140.601 73.6114L140.779 73.7614L141.168 74.4994L141.381 74.7571L140.472 75.0687L139.383 75.4436L137.811 75.9848L135.66 76.7228L133.558 77.4467L131.668 78.0957L130.356 78.5479L129.194 78.9485L128.191 79.1336L127.713 79.2812L126.769 79.7193L125.515 80.1363L123.871 80.6846L122.085 81.2773L121.228 81.7318L120.066 82.348L118.993 82.7486L117.693 83.0672L116.083 83.4585L114.79 83.7748L114.567 83.7912L112.801 84.1989L111.559 84.487L109.825 85.1266L108.762 85.5202L107.433 86.0099L106.271 86.5933L105.346 87.0571L104.251 87.1907L104.045 87.2446V87.2516L104.038 87.336L104.127 87.7225V88.2989L104.188 88.8588L104.654 90.4754L104.964 91.0916L105.371 91.3586L105.552 91.4266L105.709 91.5976L105.84 91.8272L105.929 92.0662L105.983 92.3333L106.016 93.1767L106.056 93.3267L106.238 93.5844L106.278 93.7085L106.245 93.8374L106.016 94.2872L105.934 94.5731L105.962 94.7535L106.318 95.133L106.384 95.2338L106.526 95.6156L106.498 95.6484L106.323 95.7211L105.828 95.9226L105.47 95.9343L105.071 95.7609L104.87 95.6719L104.556 95.6274L104.446 95.6695L104.259 95.8335L104.16 95.8991L103.961 95.9436L103.816 95.8921L103.495 95.6719L102.998 95.5618L102.497 95.6367L102 95.7773L101.506 95.857L100.967 95.796L99.8961 95.5032L99.3408 95.4516L99.0527 95.5149L98.5396 95.7539L98.0007 95.8406L97.2861 96.0819L96.9816 96.124L96.7262 96.0842L96.4825 96.0163L96.2155 95.9811L95.9179 96.0655L95.454 96.4638L95.2315 96.6043L94.1514 96.7004L93.964 96.7426L91.2064 98.0218L90.7636 98.488L90.6512 98.563L90.3981 98.6262L90.1545 98.7762L89.9553 98.9542L89.8335 99.0948L89.5664 99.6009L89.4071 99.7555L89.1025 99.8117L88.5379 99.8234L88.2685 99.8726L88.2122 99.8984L88.0318 99.9827L87.6125 100.395L87.3407 100.739L87.3009 100.829L87.1298 101.096L87.09 101.239L87.1158 101.358L87.172 101.449L87.2306 101.522L87.261 101.588L87.1907 102.03L87.0291 102.572L86.9611 103.089L87.1743 103.46L86.8768 104.155L86.8323 104.437L86.8791 104.661L87.0853 105.207V105.503L86.7854 106.002L86.7362 106.107L86.6542 106.578L86.4832 106.779L85.9888 107.157L85.8881 107.379L85.6421 107.618L85.5367 107.714L85.361 107.742H85.0095L84.4168 107.852L79.8787 109.649L79.0352 110.198L77.8029 111.228L76.6666 111.723L74.7384 112.562L74.0918 112.953L73.5974 113.496L71.8965 116.076L71.6927 116.533L71.4373 117.573L71.0976 118.231L70.4346 118.913L69.1577 120.089L65.8472 123.557L65.7207 123.749L65.6996 123.882L65.716 124.208L65.7465 124.517L65.3271 125.037L64.8609 125.494L64.4907 125.853L64.151 126.04L63.9636 126.094L63.3755 126.122L63.2443 126.176L62.7874 126.481L62.4899 126.382L61.3114 126.93L61.0069 126.968L60.8054 127.019L60.6414 127.118L60.2829 127.451L60.1353 127.495L59.9573 127.462L59.2474 127.233L59.0459 127.127L58.8725 126.98L58.6781 126.759L58.5141 126.623L58.3055 126.539L57.9752 126.481L57.4551 126.314L56.4945 125.785L55.9205 125.675L55.4566 125.745L55.3652 125.724L55.2856 125.644L55.1848 125.572L55.0654 125.515L54.4914 125.447L54.3789 125.405L54.3133 125.323L54.243 125.201L54.154 125.091L54.0392 125.044L53.9291 125.103L53.4839 125.45L53.3738 125.513L53.0856 125.569L52.8748 125.686L52.6569 125.743L52.5819 125.773L52.5702 125.822L52.596 125.989L52.5843 126.04L52.4086 126.089L52.1743 126.096L51.9751 126.141L51.9002 126.3L51.8158 126.209L51.127 126.57L50.9817 126.591L50.4499 126.57L49.6885 126.209L49.562 126.057L49.4706 125.843L49.487 125.656L49.6885 125.583L49.5151 125.358L48.9505 125.115L48.8287 124.911L48.7209 124.773L48.4702 124.609L48.1937 124.47L47.7275 124.346L47.5752 124.208L47.4159 124.103L47.1113 124.135L46.4483 124.426L45.6096 124.59L45.5369 124.62L45.4268 124.742L45.3565 124.77L45.2769 124.756L45.1597 124.688L45.0941 124.674H44.1523L44.0187 124.651L43.6064 124.496L43.2175 124.515L43.0957 124.496L42.8497 124.377L42.4678 124.077L42.2335 123.967L42.1468 123.878L42.0671 123.711L41.9289 123.566L41.7602 123.463L41.5892 123.421L41.3783 123.409L41.2846 123.369L41.123 123.151L41.055 123.102L40.9145 123.027L40.8606 122.971L40.8418 122.896L40.8559 122.73L40.816 122.655L40.631 122.46L40.5419 122.465L40.4318 122.615L40.399 122.526L40.3381 122.437L40.2491 122.366L40.1343 122.338L40.1108 122.277L40.0054 121.891L39.9632 121.867L39.736 121.664L39.7008 121.614H39.5556L39.4642 121.593L39.3986 121.544L39.3213 121.443V121.352L39.4056 121.129L39.3611 121.087L39.2323 121.108L38.998 121.183L38.8785 121.176L38.6794 121.026L38.5364 120.82L38.5224 120.811L38.3724 120.703L38.1171 120.82L37.9578 120.588L37.6251 120.434L36.7676 120.258L36.3669 120.277L36.2357 120.249L36.1514 120.188L36.0905 120.127L36.0249 120.099L34.9589 119.928H34.3966L34.2748 119.967L34.1881 120.056L34.1201 120.145L33.9843 120.225L33.7945 120.398L33.6633 120.457L33.5438 120.464L33.4337 120.448L33.2345 120.373L33.1268 120.291L33.0494 120.199L32.9487 120.127L32.6301 120.07L32.3934 119.953L32.0186 119.883L31.4914 119.691L31.2665 119.649L31.0463 119.679L30.5238 119.829L30.4231 119.876L30.2849 119.796L29.6242 119.773L29.3922 119.738L29.1626 119.757L28.7925 119.832L28.2583 119.942L27.7241 120.052L27.1899 120.162L26.6534 120.272L26.1192 120.382L25.5851 120.492L25.0509 120.602L24.5144 120.712L23.9779 120.823L23.4437 120.933L22.9095 121.043L22.3754 121.153L21.8412 121.263L21.307 121.373L20.7705 121.483L20.2363 121.593L19.8638 121.671L19.6295 121.675L19.1914 121.764L18.683 121.865L18.6127 121.696L18.6033 121.528L18.6924 121.34L18.4065 121.101L18.1722 120.811L17.9169 120.623L17.7318 120.534L17.549 120.48L17.1437 120.445L16.9305 120.476L16.7173 120.532L16.5018 120.555L16.2862 120.495L16.134 120.331L16.1269 120.143L16.155 119.939L16.1199 119.728L15.9887 119.588L15.4358 119.372L15.1382 119.126L14.8313 118.773L14.5947 118.384L14.4986 118.032L14.4237 117.882L13.9012 117.315L13.7208 117.21L13.1257 117.046L12.3713 116.715L12.0339 116.493L11.5373 116.041L11.1483 115.832L10.9843 115.692L10.8672 115.497L10.729 114.888L10.5532 114.539L10.3002 114.197L9.74027 113.585L9.5669 113.457L8.82187 113.152H8.66255L8.58992 113.093L8.53604 112.981V112.754L8.51261 112.648L8.3533 112.482L7.95735 112.358L7.77695 112.248L7.66684 112.081L7.53329 111.713L6.62895 110.266L6.53289 110.153L6.41574 110.083L6.2166 110.045L6.14632 110.01L6.07837 109.933L5.99403 109.776L5.79723 109.509L5.71523 109.338L5.5934 109.214L5.26071 109.155L5.21151 109.125L5.1178 109.024L5.05688 108.989L5.01471 109.012L4.9702 109.052L4.85071 109.082L4.66094 109.155L4.56488 109.167L4.39619 109.108L3.32082 108.225L3.23882 108.047L3.20602 107.827L3.15213 107.639L3.01625 107.557L2.77727 107.524L2.72573 107.431L2.75853 107.29L2.7679 107.112L2.69762 106.925L2.48207 106.562L2.4235 106.4L2.43287 106.182L2.49847 105.938L2.60156 105.709L2.7187 105.542L2.74447 105.378L2.5383 105.282L2.12127 105.186L2.10019 105.109L2.09316 104.821L2.07207 104.694L2.0299 104.636L1.87996 104.504L1.82373 104.427L1.7675 104.235L1.74641 104.069L1.7019 103.905L1.56835 103.722L1.6691 103.734L1.98538 103.722L1.54961 103.017L1.21692 102.597L1.18881 102.316V100.493L1.1771 100.458V99.8703L1.18178 98.5442L1.18647 97.2205V95.8968L1.19115 94.5731V88.9174L1.18647 86.9681V83.0743L1.18178 81.1297V77.2405L1.1771 75.3006V70.6477L1.17241 69.4833V65.6105L1.16772 63.6777V61.7448H26.4262L26.2786 61.2786L26.0654 60.8709L25.7889 60.5031L25.1095 59.8002L24.8541 59.4418L24.7393 59.0318L24.8213 58.5257L25.065 57.9494L25.3016 57.0052L25.5265 56.1126L25.6788 55.7424L26.2434 54.9083L26.6651 54.2875L26.7659 54.0696L26.801 53.8517L26.6792 53.2754L26.6277 52.4952L26.4988 52.1719L26.1825 51.8392L25.9107 51.4432L25.8451 50.8716L25.9295 49.0793L26.0044 47.4346L26.2739 46.8137L26.295 46.6849L26.2364 46.3709L26.1825 45.4174L26.0747 45.1081L25.9435 44.8645L25.8475 44.6185V44.2952L25.9131 44.0445L26.1356 43.5361L26.4824 42.9995L26.5363 42.8496V42.6434L26.5058 42.3365L26.5105 42.1749L26.541 42.0343L26.6769 41.8445L27.0681 41.5376L27.1876 41.3642L27.1806 41.2119L26.63 39.9819L26.5574 39.6563L26.6089 37.8429L26.3653 37.8031L26.295 37.6274L26.3512 37.1354L26.3418 36.4301L26.3863 36.2029L26.466 35.9592L26.4191 35.7718L26.1755 35.3969L26.0958 35.1814L26.0115 34.5559L26.4355 34.5699L27.0213 34.6824L27.5601 34.8792L27.8436 35.1509V35.2611L27.7757 35.4883L27.7663 35.6055L27.7967 35.746L27.8858 36.0037L27.9092 36.149L27.8881 36.5731L27.9701 36.73L28.2208 36.6926L28.4715 36.6105L28.68 36.6176L29.1415 36.7535L29.3875 36.7886H29.8514L30.0857 36.8167L30.3669 36.9409L30.7277 37.1728L31.044 37.4516L31.1845 37.7117L31.14 37.8593L31.0346 37.9718L30.9409 38.0936L30.9315 38.274L31.0018 38.4216L31.2126 38.6137L31.2993 38.7238L31.3649 38.9487L31.3813 39.2135L31.3602 39.4852L31.3134 39.7336L31.2173 39.9398L30.8167 40.5747L30.6597 40.741L30.1396 40.9003L29.9803 41.0362L30.0857 41.2658L30.2872 41.3595L30.8073 41.3642L31.0393 41.4041L31.3181 41.5727L31.7421 41.964L31.9928 42.0858L32.2833 42.1116L32.5481 42.0601L33.0705 41.8633L33.1924 41.8539L33.3376 41.8656L33.4688 41.8445L33.5508 41.7391L33.5906 41.5962L33.6422 41.4743L33.7172 41.3689L33.8249 41.2705L33.9374 41.2213L34.2185 41.1604L34.3497 41.0971L34.4716 40.973L34.7012 40.6614L34.8347 40.5349L35.315 40.3357H36.2568L36.7418 40.2279L37.6696 39.7664L38.192 39.6047L38.67 39.6469L40.4576 39.4852L41.205 39.3259L42.3881 38.7308L42.7817 38.6652L42.934 38.8011L42.9598 39.087L42.9434 39.4126L42.9691 39.6727L42.9621 39.7968L42.8661 39.8835L42.606 39.9843L42.4607 40.0967L42.5287 40.2069L42.6693 40.317L42.7349 40.4271L42.6294 40.6614L42.4842 40.7785L42.3787 40.9214L42.3905 41.233L42.4865 41.4907L42.77 41.9851L42.8637 42.21L42.8473 42.3318L42.6763 42.5357L42.6271 42.6575V42.777L42.6599 43.0042L42.9973 44.0445L43.1144 44.26L43.2151 44.3701L43.3042 44.4193L43.4096 44.4334H43.5689L43.7329 44.4662L43.8126 44.5505L43.8711 44.6583L43.9813 44.7637L44.6958 45.1081L44.9161 45.3026L44.9372 45.3682L44.9418 45.4361L44.9372 45.5041L44.8294 45.8227L44.909 45.9961L45.0988 46.0828L45.3448 46.0734L45.462 46.0125L45.5393 45.9258L45.6283 45.8508L45.7853 45.8274L45.9188 45.7852L45.968 45.6657L46.0032 45.5345L46.1016 45.4525L46.6732 45.4713L47.102 45.7477L47.4979 46.1085L47.9759 46.3873L48.2055 46.4295L48.9247 46.4342L49.0629 46.4178L49.3113 46.3006L49.4027 46.2772L49.5385 46.3006L49.6018 46.3452L49.6487 46.4061L50.3304 46.9637L50.5975 47.0668L50.7756 47.198L50.9466 47.5962L51.1668 47.697L51.3285 47.7204L53.4839 47.69L53.7651 47.7977L54.0181 47.9594L54.2711 48.0812L54.721 48.0531L54.9787 48.1773L55.1263 48.1843L55.2668 48.1257L55.5129 47.9571L55.6417 47.9008L56.1056 47.8235L56.5835 47.8095L56.8811 47.9008L57.0943 48.0648L57.2864 48.2569L57.516 48.435L57.9635 48.5803L58.9756 48.6505L59.4465 48.7489L59.6855 48.8895L59.8987 49.0559L60.1142 49.1566L60.3696 49.1004L60.5594 48.9129L60.7046 48.6951L60.8944 48.5357L61.2154 48.5311L61.7988 48.5943L62.3306 48.4795L62.8132 48.2007L63.249 47.7743L63.495 47.28L63.5442 46.235L63.666 45.7313L63.8581 45.4502L64.0432 45.2745L64.1721 45.08L64.1932 44.738L64.0385 44.1991L64.0315 43.9554L64.2002 43.7727L64.308 43.7563L64.5821 43.7961L64.7063 43.7914L65.1795 43.6368L65.7137 43.59L66.0721 43.4517L66.1541 43.44L66.3673 43.7469L66.4985 44.3303L66.5524 44.9535L66.5267 45.3846L66.8289 46.4974L69.16 47.9383L69.7458 48.9551L69.7996 49.4659L70.4088 51.2277L70.6032 51.4901L71.2757 52.0383L71.3436 52.0946L71.8801 52.6873L72.2292 52.8044L72.7868 52.8513L73.3608 52.8255L73.7544 52.7271L73.991 52.535L74.1293 52.3616L74.2933 52.2609L74.6096 52.2914L74.8649 52.3874L75.5748 52.8138L75.7576 53.0458L75.8044 53.3667L75.8864 53.6385L76.1652 53.7252L76.3901 53.6854L76.5776 53.6736L77.4983 53.7627L77.6131 53.833L77.6576 53.9407L77.6834 54.0649L77.7396 54.1797L78.0442 54.4234L78.2269 54.346L78.412 54.1633L78.7236 54.0836L78.9626 54.1914L79.15 54.3788L79.3679 54.5288H79.6959L79.9443 54.4913L80.1926 54.5077L80.4269 54.5803L80.6424 54.6998L81.6803 55.6065L81.8513 55.8806L82.095 56.5109L82.2496 56.799L82.6713 57.2465L82.8002 57.4878L82.7908 57.8205L82.6479 58.0314L82.4464 58.1766L82.3223 58.3594L82.4089 58.6874L82.6667 59.0248L82.9408 59.3036L83.1376 59.6058L83.1798 60.2688L83.311 60.3883L83.4984 60.3953L83.6928 60.3086L83.8147 60.154L83.9951 59.7838L84.1567 59.6761L84.7401 59.8026L85.2415 60.3204L86.0873 61.4332L86.3075 61.6253L86.3988 61.7636L86.509 62.2251L86.5605 62.2813L86.7292 62.3423L86.7761 62.3961L86.769 62.4617L86.7105 62.6023V62.6609L86.7175 62.7171L86.7011 62.8507L86.7151 62.9233L86.7643 62.9795L86.8346 63.0029L86.9026 63.017L86.9447 63.0451L87.0619 63.4903L87.1814 63.5629L87.425 63.5746L87.5398 63.6215L87.6851 63.8136L88.0693 65.7043L88.2708 66.2361L88.6527 66.611L88.8167 66.8124L89.0205 66.857L89.2478 66.8078L89.475 66.7234H89.7093L89.803 66.7187L90.117 66.6695L90.4169 66.6648L90.6957 66.7937L90.8081 66.9554L90.8925 67.1498L91.0026 67.3021L91.1924 67.3396L91.3259 67.2646L91.5649 66.9741L91.7336 66.878L92.017 66.7609L92.7433 66.2736L94.5075 65.5895L94.7629 65.4302L95.4868 64.739L95.775 64.6125L96.0655 64.6289L96.2951 64.7601L96.5083 64.9381L96.7473 65.0928L96.8972 65.1092L97.005 65.0717H97.1011L97.2135 65.2169L97.2463 65.3458L97.2252 65.484L97.176 65.6105L97.1175 65.709L97.0261 65.7746L96.8035 65.8308L96.7145 65.9268L96.6957 66.0346L96.7215 66.2923L96.6981 66.4118L96.6208 66.4516L96.5013 66.4751L96.4052 66.5454V66.7258L96.4521 66.8734L96.5177 67.0163L96.602 67.1475L96.7098 67.2576L96.9019 67.37L97.1714 67.4778L97.668 67.616L98.4716 67.6254L98.6591 67.5903L98.8512 67.1873V65.7675L98.8559 63.8511V62.0353L98.8629 60.1165V57.8791L98.8699 55.9626V53.833L98.8746 52.3429V50.9161L98.3334 50.9606L98.0687 51.0543L97.6493 51.3636L96.9956 51.6682L96.7824 51.7103L96.6489 51.6354L96.424 51.4128L96.2623 51.3519H96.0913L95.9765 51.3987L95.7961 51.5698L95.5524 51.7174L95.0042 51.9071L94.8121 52.05L94.7324 52.2117L94.5825 52.7107L94.5309 53.0106L94.4841 53.1254L94.4653 53.2308L94.5122 53.3316L94.8871 53.8119L95.0815 53.8868L95.2736 53.9009L95.4236 53.9665L95.4821 54.1961L95.4376 54.4351L95.3111 54.6225L95.1237 54.7397L94.8847 54.7631L94.791 54.7303L94.7371 54.6787L94.6926 54.6248L94.6247 54.5874L94.5427 54.5803L94.3669 54.5967L94.2849 54.5874L93.9523 54.4655L93.4321 54.1774L93.3337 54.1563L92.8324 54.1446L92.6871 54.1211L92.57 54.0719L92.4153 53.936L92.1904 53.6854L92.0639 53.6244L91.0448 53.6432L90.7402 53.7205L90.4801 53.8376L90.2669 53.9735L90.131 53.7252L89.9342 53.7556L89.7187 53.8634L89.5383 53.8517L89.4118 53.7861H89.3181L89.2595 53.7533L89.2384 53.5846L89.208 53.4558L88.1911 51.5768L87.8678 51.1715L87.1275 50.7544L87.015 50.6045L86.9588 50.3655L86.8229 50.1219L86.6542 49.911L86.4973 49.7681L86.0568 49.5291L85.8858 49.3932L85.8155 49.2011L85.7756 48.845L85.6632 48.7443L85.2274 48.8099L84.965 48.7419L84.3512 48.4045L84.1895 48.278L83.9693 47.8001L83.8006 47.6736L83.5078 47.8423L83.4679 47.7251L83.3203 47.4768L83.2618 47.4065L83.1516 47.3104L83.0392 47.2401L82.908 47.2308L82.7416 47.3198L82.6081 47.123L82.505 46.5021L82.3551 46.3686L82.1536 46.3077L82.0528 46.146L81.931 45.2628L81.8912 45.1339L81.7108 44.9629L81.6264 44.8457L81.6733 44.7918L81.6803 44.663L81.4648 43.9039L81.3921 43.7891L81.2094 43.6017L81.1157 43.4705L80.9681 43.0956L80.9025 42.9925L80.8439 42.7957L80.8275 42.1139L80.8603 41.8867L81.5046 40.9378L81.5468 40.8863L81.8232 40.6684L81.8912 40.6309L81.7975 40.1576L81.849 39.8788L81.9662 39.6938L82.0856 39.5555L82.3176 39.0706L82.3012 38.6418L82.3176 38.5059L82.3504 38.431L82.4558 38.2716L82.4886 38.1522L82.4839 37.9928L82.3504 37.3158L82.3574 37.1916L82.5355 36.9456L82.6995 36.6363L82.7463 36.5004L82.7557 36.3716L82.7299 36.0998L82.744 35.9733L82.819 35.8561L83.0392 35.6289L83.086 35.493L83.1142 35.3618L83.236 35.1017L83.2641 34.9635V34.3989L83.325 34.099L83.4375 33.8061L83.6015 33.5344L83.8123 33.3095L83.906 33.1853L83.9951 32.9088L84.1848 32.5972L84.2387 32.5316L84.3114 32.4965L84.4707 32.5082L84.541 32.4894L84.7167 32.3489L84.9111 32.1521L85.0704 31.9154L85.136 31.6601L85.0681 31.5781L84.7752 31.3532L84.7073 31.2243L84.7284 31.0767L84.7987 30.8073L84.794 30.6573L84.4894 30.3176L84.3254 30.0857V29.9123L84.3723 29.7905L84.2692 29.5984L84.3231 29.4789L84.3957 29.3641L84.4449 29.2165L84.4636 29.0571L84.4496 28.9049L84.3582 28.6565L84.2458 28.455L84.1497 28.2301L84.1099 27.9115L84.1474 27.6444L84.22 27.4429L84.2551 27.2461L84.1872 26.9978L84.1661 26.9907L84.056 26.9251L84.0255 26.9017L83.9904 26.8338L83.9646 26.6979L83.9388 26.6393L83.5124 26.2738L83.6296 26.0395L83.9388 25.6787L84.1333 25.2875L84.2434 24.7908L84.2786 23.7787L84.1872 22.865L84.2387 22.5908L84.623 21.7708L84.7448 21.2226L84.8643 20.9977L85.0939 20.904L85.1196 20.8454L84.794 20.5104L84.7635 20.3253L84.6839 20.2503L84.5761 20.2105L84.4496 20.1238L84.2786 19.8755L84.2012 19.6224L84.1848 19.032L84.1591 18.8938L84.049 18.6314L84.0232 18.5096L83.9693 18.3385L83.7327 18.0691L83.6835 17.9496L83.7467 17.8793L84.0279 17.788L84.1122 17.6896L83.7186 17.6989L83.5663 17.638L83.5054 17.4717L83.5007 17.2561L83.4773 17.0921L83.4258 16.9516L83.3367 16.8204L83.0368 16.5978L82.8892 16.4549L82.826 16.2581L82.8447 16.0753L82.8682 15.8457L82.84 15.6044L82.5823 15.2858L82.1465 15.0562L81.5327 14.9273L80.9962 14.7212L80.7947 14.2573L81.0431 13.791L81.5772 13.4373L82.7159 12.8961L83.8756 12.0362L85.9537 9.98153L87.5492 7.85421L88.0154 6.76946L88.0787 5.64254L87.5445 4.52031L87.5 4.28368L87.8257 4.15482L89.3227 3.92756L91.4852 3.59488L93.4579 3.29265L96.0796 2.88967L96.2857 2.85922L99.6079 2.34847L102.925 1.84007L105.442 1.4535L108.501 0.984924V1.40195L108.455 1.57533L108.396 1.72058L108.389 1.85413L108.504 2.0111L108.18 2.10481L107.813 2.26882L107.468 2.49607L107.218 2.78893L107.03 3.18722L106.908 3.65813L106.96 4.07751L107.302 4.33054L107.262 4.60465L107.475 4.70774L107.785 4.67494L108.255 4.46642L108.469 4.525L108.558 4.69602L108.41 4.94203L108.448 4.99123L108.506 5.11306L108.352 5.19037L108.145 5.33797L108.002 5.47854L108.033 5.5418L108.234 5.52774L108.401 5.48323L108.677 5.37077L108.928 5.2302L109.188 5.04043L109.427 4.79911L109.607 4.5086L109.504 4.54842L109.439 4.55545L109.284 4.50625L109.357 4.34694L109.361 4.32351L109.45 4.27899L109.565 4.25557L109.837 4.25088L109.94 4.29071L109.945 4.38677L109.881 4.62808L109.926 4.8038L110.036 4.82957L110.177 4.81083L110.317 4.84363L110.38 4.93031L110.413 5.02403L110.46 5.11774L110.568 5.20443L110.812 5.23723L111.095 5.21848L111.327 5.24426L111.423 5.4106L111.512 5.5582L112.114 5.97523L114.204 8.26655L114.431 8.29232L114.708 8.15175L114.979 7.97369L115.181 7.88467L115.162 7.76518L115.176 7.65038L115.228 7.56369L115.401 7.49575L115.453 7.41375L115.49 7.33175L115.53 7.27552L115.673 7.14198L115.75 7.11621L115.828 7.35049L116.008 7.49575L116.053 7.62226L116.209 7.51449L116.313 7.31301L116.369 7.08106L116.383 6.87723L116.357 6.78352L116.247 6.575L116.221 6.48832L116.247 6.40163L116.357 6.20717L116.383 6.0994L116.317 5.89791L116.022 5.72689L115.968 5.6074L116.167 5.50431H116.467L116.612 5.60506L116.849 5.92369L116.983 6.02443L117.144 6.0502L117.25 6.01272L117.346 5.94946L117.992 5.71751L118.138 5.68706L118.227 5.65191L118.259 5.60271L118.299 5.58631L118.409 5.65191L118.456 5.73157L118.498 5.96117L118.541 6.0502L118.707 6.16032L118.869 6.17672L119.037 6.15797L119.225 6.17203L119.422 6.27512L119.691 6.58672L119.89 6.71323L120.37 6.84912L120.619 7.05763L120.705 7.37861V7.84952L120.799 8.39073L121.087 8.7773L122.289 9.70507L122.5 9.78707H122.753L123.008 9.6957L123.435 9.46376L123.725 9.43799L125.588 9.94873L125.354 10.4618V11.0874L125.607 11.5841L126.139 11.7129L126.399 11.6051L126.579 11.4716L126.778 11.3873L127.097 11.4318L127.455 11.6403L127.584 11.6778L127.701 11.6684L127.943 11.6098L128.055 11.6145L128.198 11.6918L128.313 11.7551L128.772 12.2237L129.018 12.4087L129.271 12.4978L129.538 12.5306L131.166 12.4978L131.672 12.6243L132.125 12.9312L132.26 13.1069L132.504 13.6833L132.685 13.9597L132.853 14.0745L133.322 14.112L134.397 14.3463L135.292 14.4213L135.449 14.5056L135.622 14.693L135.669 14.7891L135.707 14.9789L135.779 15.0726L135.871 15.1054L136.089 15.082L136.18 15.1007L136.759 15.4873L137.691 15.841L137.883 15.9629L137.874 15.9816Z" stroke="black" stroke-width="0.5" stroke-linecap="round" stroke-linejoin="round"/>
</svg>
