<svg width="142" height="132" viewBox="0 0 142 132" fill="none" xmlns="http://www.w3.org/2000/svg">
<path d="M1.29059 42.2272L1.41508 42.3571L1.75262 42.5158L2.30083 42.9488L2.65513 43.1219L2.82989 43.1484L3.39246 43.1219L3.98855 43.3456L4.18246 43.3817H5.53742L5.63079 43.4033L5.80075 43.502L5.91327 43.5236L6.01621 43.4827L6.17421 43.3071L6.27954 43.2638L7.48847 43.0257L8.44365 42.6024L8.88174 42.5543L9.11156 42.7058L9.3318 42.9031L10.0045 43.0835L10.4019 43.2807L10.7634 43.5164L10.919 43.7136L11.0937 44.0095L11.9101 44.3606L12.1614 44.6877L11.8718 44.7935L11.8478 45.0653L11.9795 45.3756L12.1614 45.5969L13.2578 46.1188L14.0239 46.1477L14.2322 46.1188L15.2257 45.5969L15.3477 45.7292L15.4555 45.4983L15.7427 45.4333L16.0803 45.4237L16.334 45.3515L16.3508 45.277L16.3149 45.0341L16.334 44.9619L16.4418 44.9186L16.7554 44.8368L17.0594 44.6661L17.4759 44.5843L17.6363 44.4929L18.2755 43.9926L18.4359 43.9084L18.6011 43.9758L18.7304 44.1345L18.8333 44.3125L18.9291 44.4304L19.0918 44.4905L19.9201 44.5891L20.0925 44.6709L20.2385 44.7767L20.3511 44.8897L20.4803 44.921L21.1506 44.82L21.9765 44.9787L23.3602 45.746L24.1095 45.9889L24.5859 46.0731L24.8852 46.1958L25.1222 46.393L25.4022 46.7105L25.6512 46.9245L25.9409 47.0761L26.9655 47.4104L27.224 47.4585L27.4395 47.3935L27.9542 46.9125L28.1888 46.7682L28.4784 46.6936L28.9165 46.6407L30.6138 45.8494L31.0423 45.9913L31.7031 45.5512L31.8922 45.4718L32.742 45.4333L33.0125 45.3539L33.5009 45.0822L34.0371 44.5626L34.7074 43.9012L35.3131 43.146L35.2676 42.6986L35.2461 42.2272L35.2748 42.0324L35.4567 41.7558L40.2278 36.7338L42.0688 35.0333L43.024 34.0472L43.5123 33.0923L43.8786 31.5867L44.173 30.9277L46.6244 27.1924L47.3378 26.4059L48.2691 25.8383L51.0508 24.6237L52.6882 23.9094L54.4645 22.4181L55.6807 21.6244L62.2209 19.022L63.0755 18.8609H63.5806L63.8344 18.82L63.9876 18.6805L64.3419 18.3342L64.4879 18.0119L65.2013 17.4659L65.4479 17.1724L65.5676 16.4894L65.6394 16.3354L66.0751 15.6139L66.0703 15.1858L65.7735 14.3969L65.7064 14.0722L65.7687 13.6657L66.1996 12.6579L65.8932 12.1216L65.9889 11.3712L66.2211 10.5895L66.3217 9.94969L66.2762 9.85348L66.1924 9.74766L66.111 9.61537L66.0727 9.4446L66.1278 9.23535L66.3743 8.85052L66.4294 8.72064L66.8196 8.22037L67.4229 7.62388L67.6838 7.50122L67.7628 7.46274L68.1506 7.39058L68.967 7.37615L69.4051 7.29437L69.6349 7.07069L70.0179 6.33711L70.195 6.13267L70.4847 5.87532L70.8366 5.65644L71.2005 5.56505L71.3633 5.45922L72.0001 4.78336L75.974 2.92897L76.2469 2.86884L77.803 2.72934L78.1237 2.5273L78.794 1.95006L79.2225 1.8298L79.608 1.88031L79.9575 1.97652L80.3262 2.03184L80.7642 1.9693L81.796 1.62055L82.5741 1.49548L83.3138 1.14914L83.7279 1.05774L84.5275 1.1323L86.0716 1.55802L86.8496 1.64701L87.563 1.53156L88.2788 1.32952L89.0018 1.2237L89.7175 1.38244L90.1796 1.69992L90.3902 1.77448L90.6775 1.70954L90.8187 1.61334L91.0917 1.37763L91.2497 1.3175L91.7045 1.38244L91.9942 1.50991L92.5687 1.76246L93.0834 1.74562L93.7968 1.45459L93.8231 2.97226L93.8519 4.76172L93.8902 7.01297L93.9117 8.32138L95.9322 8.30695L97.2249 8.29974L100.162 8.27809L102.101 8.26366L102.901 8.43202L103.626 8.94673L103.916 9.257L104.182 9.46384L104.483 9.50714L104.885 9.32915L105.096 9.14636L105.429 8.76394L105.692 8.62684L105.845 8.66533L105.987 8.77596L106.123 8.78318L106.269 8.51861L106.722 8.2372L107.521 8.29974L109.348 8.73748L109.688 8.86495L109.985 9.07902L110.241 9.40612L110.578 10.0435L110.803 10.3033L111.153 10.4957L111.332 10.6231L111.411 10.7963L111.469 10.9719L111.581 11.097L111.648 11.1114L111.79 11.0753L111.861 11.0681L111.945 11.1162L111.94 11.2028L111.916 11.2942L111.95 11.3495L112.302 11.3952L112.69 11.4L113.049 11.4529L113.319 11.6453L114.014 11.9941L117.02 12.1961L117.463 12.3958L117.959 12.8095L119.05 14.0144L119.397 14.3151L120.154 14.7144L120.367 14.8947L120.525 15.2291L120.614 15.9506L120.772 16.2368L121.059 16.3763L122.929 16.6794L126.486 16.5904L127.903 16.8093L129.761 17.5645L132.614 18.7262L134.769 19.6017L134.972 19.7917L135.059 20.0635L135.071 20.4988L135.25 21.2444L135.729 21.6148L135.832 21.6581H135.839L135.995 21.5547L136.246 21.4561L136.526 21.4104L137.091 21.4465L138.195 21.6942L138.76 21.7303L139.052 21.6485L139.59 21.3021L139.889 21.1747L140.112 21.1482L139.988 21.6918L139.48 23.6833L139.171 24.2918L138.889 24.667L137.596 25.9417L137.62 26.062L138.64 27.8899L139.392 29.2392L139.854 30.3312L140.1 31.5001L140.124 32.2048L140.131 32.3948L140.198 32.8085L140.385 33.1837L140.543 33.316L140.945 33.5421L141.07 33.7105L141.084 34.0111L140.972 34.3094L140.888 34.4392L140.632 34.8361L139.925 36.2287L139.808 36.3754L139.652 36.4764L139.538 36.6039V36.8131L139.729 37.4553L139.808 37.6117L140.122 37.8618L140.797 38.1745L141.043 38.5088L141.118 38.9008L141.046 39.2664L140.749 39.9712L140.679 40.6999L140.732 41.5321L140.658 42.2272L140.198 42.5375L139.901 42.677L139.705 42.9945L139.59 43.3889L139.54 43.7593L139.569 44.1297L139.782 44.6613L139.815 44.998L139.743 45.2457L139.605 45.3732L139.461 45.467L139.37 45.6185L139.399 45.7965L139.619 46.0611L139.602 46.2246L139.506 46.5998L139.545 47.028L140.179 48.9906L140.237 49.6207L140.225 49.7626L140.064 50.1691L139.925 50.4217L139.82 50.5684L139.789 50.7247L139.868 51.0109L140.141 51.415L140.981 52.1053L141.307 52.4709L141.448 52.8365L141.364 53.0481L140.845 53.445L140.466 54.003L140.416 53.9885L140.442 54.1761L140.672 54.4503L140.735 54.6452L140.615 55.0324L140.294 55.2777L139.899 55.4653L139.547 55.6794L139.226 55.8502L138.884 55.9512L138.575 56.0811L138.353 56.3408L138.307 56.6631L138.369 57.0551L138.599 57.7406L139.14 58.8254L139.279 59.3473L139.241 59.9798L139.116 60.4922L138.922 60.9034L138.611 61.1584L138.137 61.1993L137.4 61.1416L136.854 61.2233L135.121 62.0459L135.092 62.2167L135.217 63.2485L135.331 63.5299L135.556 63.6814L135.365 63.8281L135.135 63.958L134.96 64.1192L134.934 64.3549L135.071 64.783L135.099 64.9922L135.071 65.2352L135.114 65.4901L135.255 65.6417L135.458 65.7138L135.703 65.7258L136.82 65.5551L137.134 65.5911L137.33 65.6729L137.436 65.7595L137.491 65.8894L137.531 66.1131L137.62 66.3488L137.761 66.4979L137.929 66.6326L138.08 66.8202L138.195 67.4768L137.673 69.8507L137.654 70.3245L137.591 70.6661L137.448 70.986L137.184 71.4093L136.512 72.1813L136.469 72.3689L136.507 72.9318L136.394 73.711L136.416 74.1055L136.607 74.334L136.952 74.3508L137.28 74.3099L137.534 74.3989L137.656 74.815L137.661 75.1686L137.531 76.5588L137.536 76.7343L137.582 76.9219L137.608 77.1721L137.531 77.3573L137.426 77.5232L137.369 77.7181L137.429 78.1462L137.634 78.3554L137.96 78.43L138.374 78.4516L138.779 78.3386L139.317 77.7806L139.652 77.6651L139.973 77.8479L140 78.2376L139.851 78.9832L140 79.3199L140.299 79.6278L140.687 79.8755L141.086 80.0439L141.266 80.2555L141.209 80.6259L141.086 81.0781L141.058 81.8718L140.711 83.0046L140.646 84.4261L140.754 84.8759L140.806 85.025L139.842 84.9913L139.595 85.2078L139.49 85.7971L139.351 86.0737L139.066 86.1626L138.774 86.218L138.611 86.3911L138.477 87.3292L138.388 87.6274L138.142 88.0844L138.104 88.272L138.125 88.4043L138.247 88.664L138.257 88.818L138.128 89.4072L138.029 89.6838L137.891 89.9316L137.091 90.9321L135.923 92.3921L135.358 93.5033L134.769 94.6626L134.314 95.1676L133.543 95.2999L132.693 95.1941L131.911 95.2951L131.343 96.0383L131.154 96.8585L131.118 97.657L131.377 99.7351L131.623 101.746L131.511 102.487L131.089 103.336L130.18 104.514L128.786 106.32L128.887 106.491L129.148 106.657L129.311 106.881L129.392 106.893L129.471 106.888L129.524 106.929V107.059L129.457 107.182L129.387 107.287L129.366 107.364L130.678 109.632L130.699 109.717L130.723 109.808L130.026 109.353L129.387 110.085L128.514 111.061L127.573 112.117L126.627 113.173L125.684 114.231L124.738 115.289L123.795 116.348L122.852 117.408L121.909 118.467L120.965 119.525L120.02 120.586L119.077 121.649L118.131 122.709L117.19 123.77L116.247 124.833L115.304 125.894L114.358 126.957L113.415 128.02L112.479 129.071L111.306 129.913L109.87 130.935L109.451 130.312L109.271 130.165L109.092 130.158L108.802 130.283L108.656 130.303L108.51 130.245L108.23 130.062L108.101 130.024L107.974 129.925L107.607 129.475L107.413 129.355L107.145 129.396L106.547 129.687L106.413 129.718L106.243 129.757L105.932 129.694L105.316 129.42L103.356 128.953L102.274 128.833L101.747 128.689L101.161 128.927L99.1544 129.088L98.8001 129.201L98.3165 129.55L98.046 129.631L97.9215 129.591L97.6462 129.396L97.481 129.352L96.9592 129.357L95.7933 129.22L95.4534 129.232L95.1063 129.328L94.4312 129.643L94.0888 129.754L93.3563 129.884L92.6884 129.908L92.0732 129.757L91.5082 129.355L91.2544 129.126L90.9863 128.958L90.6488 128.855L90.2035 128.821L89.4039 128.932L89.0879 128.908L88.657 128.686L88.1423 128.306L87.879 128.193L87.3428 128.128L87.3021 128.066L87.2781 127.979L86.9358 127.606L86.7515 127.513L86.3636 127.424L86.1865 127.351L85.6957 127.043L85.4324 126.967L84.7836 126.909L84.3408 126.673L83.7255 126.541L82.6794 125.836L82.3131 125.73L81.0994 125.793L80.8863 125.875L80.5584 125.641L80.1921 125.697L79.5242 126.004L78.9161 125.944L78.5714 126.024L78.4182 126.346L78.2267 126.541L77.779 126.495L76.8789 126.274L76.5054 126.358L75.8471 126.728L75.4593 126.938L75.1936 126.926L75.0811 126.899L74.9566 126.817L73.5801 125.615L73.4676 125.432L73.3287 125.047L73.2305 124.872L73.0558 124.65L72.9648 124.59L71.2627 124.643L70.5972 124.525L69.9269 124.169L69.3835 123.582L69.0412 122.839L68.9023 122.012L68.9765 121.187L69.1728 120.768L69.4697 120.299L69.6899 119.845L69.6468 119.47L69.35 119.234L68.6294 119.003L68.3086 118.787L67.7868 118.659L66.6903 118.592L66.1469 118.445L63.5064 117.202L62.6829 116.937L61.9863 116.379L61.7349 116.297L61.1987 116.244L60.6241 116.09L60.4254 116.124L60.2363 116.215L59.6019 116.381L59.3146 116.497L59.013 116.552L58.6252 116.463L57.1601 115.696L56.4419 115.446L55.774 115.316L53.6291 115.285L52.2789 115.013L51.2375 114.945L50.9431 114.849L50.6917 114.681L50.4739 114.443L50.3709 114.267L50.2081 113.87L50.1148 113.712L49.9903 113.635L49.8897 113.654L49.8012 113.635L49.7293 113.445L49.8227 113.194L49.7509 113.081L49.624 113.038L49.5618 113.002L49.6001 112.817L49.7389 112.584L49.7988 112.432L49.7485 112.23L49.2147 111.119L48.9202 110.799L48.8053 110.619L48.7766 110.472L48.7861 110.171L48.7454 110.015L48.5755 109.741L47.9291 108.954L47.4695 108.218L46.9332 107.552L45.6836 106.626L45.4107 106.33L44.7907 105.469L44.6446 105.103L44.6494 104.764L44.8673 103.737L44.8936 103.328L44.7548 102.241V102.051L44.7979 101.616L44.7931 101.395L44.8146 101.137L44.9199 100.962L45.0492 100.796L45.145 100.577L45.4179 99.0087L45.3772 98.2342L44.9295 96.6997L45.0708 96.0071L45.291 95.324L45.3437 94.5615L45.2096 94.2224L44.9511 93.9699L44.6303 93.8352L43.9073 93.8256L43.2777 93.5297L42.2555 93.7173L40.812 93.5297L38.7747 93.5249L38.1499 93.6091L37.4724 93.9651L37.7525 91.1799L37.4293 88.9166L36.5101 86.533L36.2731 86.1963L35.9475 85.9919L35.5717 85.8812L35.1934 85.8187L34.9732 85.8115L34.7936 85.8283L34.6117 85.8163L34.3891 85.7321L34.1927 85.571L33.8815 85.126L33.7188 84.936L33.1155 84.5993L32.5338 84.5367L31.9353 84.544L31.2865 84.4237L29.2493 83.375L28.5766 83.2476L28.1505 83.2428L27.7938 83.1706L27.4874 83.007L27.2121 82.7208L26.9631 82.3745L26.8266 82.2254L26.7668 82.1604L26.5082 82.0137L25.6919 81.778L25.3592 81.6265L25.1126 81.3691L24.9833 80.9338L24.8301 80.573L24.5237 80.2507L23.7959 79.7745L23.4512 79.6326L22.7402 79.4666L22.4098 79.3343L22.0675 79.0096L21.5696 78.2304L21.165 78.0091L20.6168 77.9105L20.4731 77.8479L20.2529 77.6988L20.2577 77.6651L20.3774 77.6026L20.5067 77.3645L20.6359 76.9628L20.5904 76.8089L20.4109 76.5612L20.2697 76.4096L20.0949 76.2774L19.8986 76.186L18.9338 76.1667L18.1295 75.9503L17.4281 75.5077L16.9732 74.815L15.2472 69.8796L14.833 69.0378L14.2872 68.309L13.8444 67.549L13.7007 67.1882L13.6337 66.7264L13.6911 66.3343L13.9856 65.6248L14.0478 65.2304L14.0407 65.2111L13.5595 63.7055L11.2996 61.6539L10.6556 60.2156L10.5455 58.8181L10.3396 58.1447L9.88959 57.7334L9.19295 57.3799L8.67586 56.9181L7.82123 55.6794L7.57466 55.422L6.96181 55.0011L5.77442 53.7312L5.54221 53.344L5.45124 53.089L5.28367 52.2857L5.14003 51.9057L4.55831 50.9484L3.98137 49.4788L3.59834 48.7741L3.05731 48.334L2.44447 47.9684L1.95611 47.4344L1.21159 46.1501L0.689717 44.832L0.567627 44.3774V43.8411L1.29538 42.2128L1.29059 42.2272Z" stroke="black" stroke-width="0.5" stroke-linecap="round" stroke-linejoin="round"/>
</svg>
